<mxfile host="Electron" agent="Mozilla/5.0 (Windows NT 10.0; Win64; x64) AppleWebKit/537.36 (KHTML, like Gecko) draw.io/24.7.5 Chrome/126.0.6478.183 Electron/31.3.0 Safari/537.36" version="24.7.5" pages="6">
  <diagram name="cajaNegra" id="d30awdio9RWvkm8CWoa1">
    <mxGraphModel dx="913" dy="-287" grid="1" gridSize="10" guides="1" tooltips="1" connect="1" arrows="1" fold="1" page="1" pageScale="1" pageWidth="583" pageHeight="827" math="0" shadow="0">
      <root>
        <mxCell id="0" />
        <mxCell id="1" parent="0" />
        <mxCell id="uI0lJ6XtZj-DLdQhZyMz-4" value="" style="endArrow=classic;html=1;rounded=0;" parent="1" edge="1">
          <mxGeometry width="50" height="50" relative="1" as="geometry">
            <mxPoint x="80" y="980" as="sourcePoint" />
            <mxPoint x="200" y="980" as="targetPoint" />
          </mxGeometry>
        </mxCell>
        <mxCell id="uI0lJ6XtZj-DLdQhZyMz-5" value="" style="endArrow=classic;html=1;rounded=0;strokeColor=#FF3333;entryX=-0.003;entryY=0.409;entryDx=0;entryDy=0;entryPerimeter=0;" parent="1" edge="1" target="FcqBtxRYaPF_6iqim7l_-4">
          <mxGeometry width="50" height="50" relative="1" as="geometry">
            <mxPoint x="75" y="1050" as="sourcePoint" />
            <mxPoint x="195" y="1080" as="targetPoint" />
          </mxGeometry>
        </mxCell>
        <mxCell id="uI0lJ6XtZj-DLdQhZyMz-6" value="" style="endArrow=classic;html=1;rounded=0;fillColor=#B5739D;strokeColor=#0000FF;entryX=-0.012;entryY=0.638;entryDx=0;entryDy=0;entryPerimeter=0;" parent="1" edge="1" target="FcqBtxRYaPF_6iqim7l_-4">
          <mxGeometry width="50" height="50" relative="1" as="geometry">
            <mxPoint x="70" y="1120" as="sourcePoint" />
            <mxPoint x="190" y="1120" as="targetPoint" />
          </mxGeometry>
        </mxCell>
        <mxCell id="uI0lJ6XtZj-DLdQhZyMz-7" value="" style="endArrow=classic;html=1;rounded=0;strokeColor=#FFD966;entryX=-0.003;entryY=0.834;entryDx=0;entryDy=0;entryPerimeter=0;" parent="1" edge="1" target="FcqBtxRYaPF_6iqim7l_-4">
          <mxGeometry width="50" height="50" relative="1" as="geometry">
            <mxPoint x="75" y="1180" as="sourcePoint" />
            <mxPoint x="195" y="1180" as="targetPoint" />
          </mxGeometry>
        </mxCell>
        <mxCell id="uI0lJ6XtZj-DLdQhZyMz-8" value="" style="endArrow=classic;html=1;rounded=0;strokeColor=#00CC00;entryX=0;entryY=1;entryDx=0;entryDy=0;" parent="1" edge="1" target="FcqBtxRYaPF_6iqim7l_-4">
          <mxGeometry width="50" height="50" relative="1" as="geometry">
            <mxPoint x="50" y="1250" as="sourcePoint" />
            <mxPoint x="170" y="1250" as="targetPoint" />
          </mxGeometry>
        </mxCell>
        <mxCell id="uI0lJ6XtZj-DLdQhZyMz-10" value="reset" style="text;html=1;align=center;verticalAlign=middle;whiteSpace=wrap;rounded=0;fontSize=20;" parent="1" vertex="1">
          <mxGeometry x="110" y="950" width="60" height="30" as="geometry" />
        </mxCell>
        <mxCell id="uI0lJ6XtZj-DLdQhZyMz-11" value="clk" style="text;html=1;align=center;verticalAlign=middle;whiteSpace=wrap;rounded=0;fontSize=20;" parent="1" vertex="1">
          <mxGeometry x="110" y="910" width="60" height="30" as="geometry" />
        </mxCell>
        <mxCell id="uI0lJ6XtZj-DLdQhZyMz-12" value="face [3:0]" style="text;html=1;align=center;verticalAlign=middle;whiteSpace=wrap;rounded=0;fontSize=20;strokeColor=none;fillColor=none;" parent="1" vertex="1">
          <mxGeometry x="80" y="1010" width="100" height="30" as="geometry" />
        </mxCell>
        <mxCell id="uI0lJ6XtZj-DLdQhZyMz-13" value="food_value [2:0]" style="text;html=1;align=center;verticalAlign=middle;whiteSpace=wrap;rounded=0;fontSize=20;strokeColor=none;fillColor=none;" parent="1" vertex="1">
          <mxGeometry x="40" y="1070" width="150" height="30" as="geometry" />
        </mxCell>
        <mxCell id="uI0lJ6XtZj-DLdQhZyMz-14" value="energy_value [2:0]" style="text;html=1;align=center;verticalAlign=middle;whiteSpace=wrap;rounded=0;fontSize=20;strokeColor=none;fillColor=none;" parent="1" vertex="1">
          <mxGeometry x="25" y="1140" width="175" height="30" as="geometry" />
        </mxCell>
        <mxCell id="uI0lJ6XtZj-DLdQhZyMz-15" value="joy_value [2:0]" style="text;html=1;align=center;verticalAlign=middle;whiteSpace=wrap;rounded=0;fontSize=20;strokeColor=none;fillColor=none;" parent="1" vertex="1">
          <mxGeometry x="55" y="1200" width="135" height="30" as="geometry" />
        </mxCell>
        <mxCell id="FcqBtxRYaPF_6iqim7l_-1" value="LCD_CONTROLLER" style="swimlane;whiteSpace=wrap;html=1;fillColor=#B3B3B3;strokeColor=#666666;gradientColor=#b3b3b3;" vertex="1" parent="1">
          <mxGeometry x="200" y="840" width="650" height="600" as="geometry" />
        </mxCell>
        <mxCell id="FcqBtxRYaPF_6iqim7l_-19" value="&lt;span style=&quot;text-wrap: nowrap;&quot;&gt;LCD1602_CUST_CHAR&lt;/span&gt;" style="swimlane;whiteSpace=wrap;html=1;fillColor=#eeeeee;strokeColor=#36393d;" vertex="1" parent="FcqBtxRYaPF_6iqim7l_-1">
          <mxGeometry x="320" y="464.40999999999997" width="230" height="120" as="geometry" />
        </mxCell>
        <mxCell id="FcqBtxRYaPF_6iqim7l_-4" value="" style="swimlane;startSize=0;" vertex="1" parent="FcqBtxRYaPF_6iqim7l_-1">
          <mxGeometry x="230" y="50" width="280" height="310" as="geometry" />
        </mxCell>
        <mxCell id="DtENKFP9RfX3sww3IXV_-7" style="edgeStyle=orthogonalEdgeStyle;rounded=0;orthogonalLoop=1;jettySize=auto;html=1;" edge="1" parent="FcqBtxRYaPF_6iqim7l_-4" source="FcqBtxRYaPF_6iqim7l_-7">
          <mxGeometry relative="1" as="geometry">
            <mxPoint x="420" y="70" as="targetPoint" />
          </mxGeometry>
        </mxCell>
        <mxCell id="DtENKFP9RfX3sww3IXV_-8" value="clk_16ms" style="edgeLabel;html=1;align=center;verticalAlign=middle;resizable=0;points=[];" vertex="1" connectable="0" parent="DtENKFP9RfX3sww3IXV_-7">
          <mxGeometry x="-0.1731" y="-7" relative="1" as="geometry">
            <mxPoint x="-49" y="-30" as="offset" />
          </mxGeometry>
        </mxCell>
        <mxCell id="FcqBtxRYaPF_6iqim7l_-7" value="divisor de frecuencia" style="rounded=0;whiteSpace=wrap;html=1;" vertex="1" parent="FcqBtxRYaPF_6iqim7l_-4">
          <mxGeometry x="70" y="40" width="140" height="46" as="geometry" />
        </mxCell>
        <mxCell id="FcqBtxRYaPF_6iqim7l_-8" value="FSM" style="rounded=0;whiteSpace=wrap;html=1;" vertex="1" parent="FcqBtxRYaPF_6iqim7l_-4">
          <mxGeometry x="40" y="120" width="140" height="155" as="geometry" />
        </mxCell>
        <mxCell id="FcqBtxRYaPF_6iqim7l_-9" value="" style="endArrow=none;html=1;rounded=0;exitX=0;exitY=0.5;exitDx=0;exitDy=0;entryX=0;entryY=0.25;entryDx=0;entryDy=0;" edge="1" parent="FcqBtxRYaPF_6iqim7l_-4" source="FcqBtxRYaPF_6iqim7l_-7" target="FcqBtxRYaPF_6iqim7l_-4">
          <mxGeometry width="50" height="50" relative="1" as="geometry">
            <mxPoint x="-190" y="330" as="sourcePoint" />
            <mxPoint x="-140" y="280" as="targetPoint" />
          </mxGeometry>
        </mxCell>
        <mxCell id="FcqBtxRYaPF_6iqim7l_-10" value="" style="endArrow=classic;html=1;rounded=0;" edge="1" parent="FcqBtxRYaPF_6iqim7l_-1">
          <mxGeometry width="50" height="50" relative="1" as="geometry">
            <mxPoint x="370" y="326" as="sourcePoint" />
            <mxPoint x="370" y="460" as="targetPoint" />
          </mxGeometry>
        </mxCell>
        <mxCell id="FcqBtxRYaPF_6iqim7l_-11" value="num_cust_char" style="edgeLabel;html=1;align=center;verticalAlign=middle;resizable=0;points=[];fontSize=15;" vertex="1" connectable="0" parent="FcqBtxRYaPF_6iqim7l_-10">
          <mxGeometry x="-0.0299" y="-1" relative="1" as="geometry">
            <mxPoint x="-4" y="-4" as="offset" />
          </mxGeometry>
        </mxCell>
        <mxCell id="FcqBtxRYaPF_6iqim7l_-12" value="" style="endArrow=classic;html=1;rounded=0;" edge="1" parent="FcqBtxRYaPF_6iqim7l_-1">
          <mxGeometry width="50" height="50" relative="1" as="geometry">
            <mxPoint x="480" y="110" as="sourcePoint" />
            <mxPoint x="490" y="460" as="targetPoint" />
          </mxGeometry>
        </mxCell>
        <mxCell id="FcqBtxRYaPF_6iqim7l_-15" style="edgeStyle=orthogonalEdgeStyle;rounded=0;orthogonalLoop=1;jettySize=auto;html=1;entryX=1;entryY=0.618;entryDx=0;entryDy=0;entryPerimeter=0;" edge="1" parent="FcqBtxRYaPF_6iqim7l_-1" target="FcqBtxRYaPF_6iqim7l_-4">
          <mxGeometry relative="1" as="geometry">
            <mxPoint x="580" y="404.40999999999997" as="targetPoint" />
            <mxPoint x="550.0000000000002" y="524.4100000000004" as="sourcePoint" />
            <Array as="points">
              <mxPoint x="590" y="524" />
              <mxPoint x="590" y="242" />
            </Array>
          </mxGeometry>
        </mxCell>
        <mxCell id="FcqBtxRYaPF_6iqim7l_-16" value="rw" style="edgeLabel;html=1;align=center;verticalAlign=middle;resizable=0;points=[];fontSize=15;" vertex="1" connectable="0" parent="FcqBtxRYaPF_6iqim7l_-15">
          <mxGeometry x="-0.4555" relative="1" as="geometry">
            <mxPoint as="offset" />
          </mxGeometry>
        </mxCell>
        <mxCell id="FcqBtxRYaPF_6iqim7l_-20" value="" style="endArrow=none;html=1;rounded=0;exitX=0;exitY=1;exitDx=0;exitDy=0;" edge="1" parent="FcqBtxRYaPF_6iqim7l_-1">
          <mxGeometry width="50" height="50" relative="1" as="geometry">
            <mxPoint x="320" y="564.41" as="sourcePoint" />
            <mxPoint x="334.5" y="554.41" as="targetPoint" />
          </mxGeometry>
        </mxCell>
        <mxCell id="FcqBtxRYaPF_6iqim7l_-21" value="" style="endArrow=none;html=1;rounded=0;exitX=0;exitY=0.75;exitDx=0;exitDy=0;" edge="1" parent="FcqBtxRYaPF_6iqim7l_-1">
          <mxGeometry width="50" height="50" relative="1" as="geometry">
            <mxPoint x="320" y="544.41" as="sourcePoint" />
            <mxPoint x="334.5" y="556.41" as="targetPoint" />
          </mxGeometry>
        </mxCell>
        <mxCell id="FcqBtxRYaPF_6iqim7l_-22" value="" style="endArrow=classic;html=1;rounded=0;" edge="1" parent="FcqBtxRYaPF_6iqim7l_-1">
          <mxGeometry width="50" height="50" relative="1" as="geometry">
            <mxPoint x="290" y="364" as="sourcePoint" />
            <mxPoint x="320" y="500" as="targetPoint" />
            <Array as="points">
              <mxPoint x="290" y="330" />
              <mxPoint x="290" y="364.40999999999997" />
              <mxPoint x="290" y="464.40999999999997" />
              <mxPoint x="290" y="500" />
            </Array>
          </mxGeometry>
        </mxCell>
        <mxCell id="FcqBtxRYaPF_6iqim7l_-23" value="start_painting" style="edgeLabel;html=1;align=center;verticalAlign=middle;resizable=0;points=[];fontSize=15;" vertex="1" connectable="0" parent="FcqBtxRYaPF_6iqim7l_-22">
          <mxGeometry x="-0.0182" y="-2" relative="1" as="geometry">
            <mxPoint x="22" y="7" as="offset" />
          </mxGeometry>
        </mxCell>
        <mxCell id="FcqBtxRYaPF_6iqim7l_-24" value="" style="endArrow=classic;html=1;rounded=0;entryX=1;entryY=0.75;entryDx=0;entryDy=0;" edge="1" parent="FcqBtxRYaPF_6iqim7l_-1" target="FcqBtxRYaPF_6iqim7l_-8">
          <mxGeometry width="50" height="50" relative="1" as="geometry">
            <mxPoint x="440" y="460" as="sourcePoint" />
            <mxPoint x="490" y="394.40999999999997" as="targetPoint" />
            <Array as="points">
              <mxPoint x="440" y="290" />
            </Array>
          </mxGeometry>
        </mxCell>
        <mxCell id="FcqBtxRYaPF_6iqim7l_-25" value="lcd_available" style="edgeLabel;html=1;align=center;verticalAlign=middle;resizable=0;points=[];fontSize=15;" vertex="1" connectable="0" parent="FcqBtxRYaPF_6iqim7l_-24">
          <mxGeometry x="0.0042" y="2" relative="1" as="geometry">
            <mxPoint x="-3" y="70" as="offset" />
          </mxGeometry>
        </mxCell>
        <mxCell id="FcqBtxRYaPF_6iqim7l_-31" value="" style="endArrow=classic;html=1;rounded=0;entryX=1;entryY=0.5;entryDx=0;entryDy=0;" edge="1" parent="FcqBtxRYaPF_6iqim7l_-1" target="FcqBtxRYaPF_6iqim7l_-4">
          <mxGeometry width="50" height="50" relative="1" as="geometry">
            <mxPoint x="550" y="554.41" as="sourcePoint" />
            <mxPoint x="610" y="387.40999999999997" as="targetPoint" />
            <Array as="points">
              <mxPoint x="610" y="554.41" />
              <mxPoint x="610" y="205" />
            </Array>
          </mxGeometry>
        </mxCell>
        <mxCell id="FcqBtxRYaPF_6iqim7l_-32" value="data[7:0]" style="edgeLabel;html=1;align=center;verticalAlign=middle;resizable=0;points=[];fontSize=15;" vertex="1" connectable="0" parent="FcqBtxRYaPF_6iqim7l_-31">
          <mxGeometry x="-0.7794" y="1" relative="1" as="geometry">
            <mxPoint x="15" y="1" as="offset" />
          </mxGeometry>
        </mxCell>
        <mxCell id="uI0lJ6XtZj-DLdQhZyMz-2" value="" style="endArrow=classic;html=1;rounded=0;entryX=0;entryY=0.25;entryDx=0;entryDy=0;" parent="FcqBtxRYaPF_6iqim7l_-1" edge="1" target="FcqBtxRYaPF_6iqim7l_-4">
          <mxGeometry width="50" height="50" relative="1" as="geometry">
            <mxPoint x="-120" y="70" as="sourcePoint" />
            <mxPoint x="135" y="130" as="targetPoint" />
            <Array as="points">
              <mxPoint x="85" y="70" />
            </Array>
          </mxGeometry>
        </mxCell>
        <mxCell id="DtENKFP9RfX3sww3IXV_-10" style="edgeStyle=orthogonalEdgeStyle;rounded=0;orthogonalLoop=1;jettySize=auto;html=1;entryX=0;entryY=0.75;entryDx=0;entryDy=0;" edge="1" parent="FcqBtxRYaPF_6iqim7l_-1" target="FcqBtxRYaPF_6iqim7l_-8">
          <mxGeometry relative="1" as="geometry">
            <mxPoint x="250" y="450" as="targetPoint" />
            <mxPoint x="190" y="500" as="sourcePoint" />
            <Array as="points">
              <mxPoint x="250" y="500" />
              <mxPoint x="250" y="286" />
            </Array>
          </mxGeometry>
        </mxCell>
        <mxCell id="DtENKFP9RfX3sww3IXV_-11" value="&lt;font style=&quot;font-size: 14px;&quot;&gt;new_update&lt;/font&gt;" style="edgeLabel;html=1;align=center;verticalAlign=middle;resizable=0;points=[];fontSize=14;" vertex="1" connectable="0" parent="DtENKFP9RfX3sww3IXV_-10">
          <mxGeometry x="-0.3563" y="-2" relative="1" as="geometry">
            <mxPoint x="-32" y="-25" as="offset" />
          </mxGeometry>
        </mxCell>
        <mxCell id="DtENKFP9RfX3sww3IXV_-1" value="TASK_MANAGER" style="swimlane;whiteSpace=wrap;html=1;fillColor=#eeeeee;strokeColor=#36393d;" vertex="1" parent="FcqBtxRYaPF_6iqim7l_-1">
          <mxGeometry x="40" y="470" width="150" height="90" as="geometry" />
        </mxCell>
        <mxCell id="uI0lJ6XtZj-DLdQhZyMz-60" value="" style="endArrow=none;html=1;rounded=0;entryX=0.133;entryY=0;entryDx=0;entryDy=0;strokeColor=#FF3333;entryPerimeter=0;fillColor=#FF3333;" parent="FcqBtxRYaPF_6iqim7l_-1" target="DtENKFP9RfX3sww3IXV_-1" edge="1">
          <mxGeometry width="50" height="50" relative="1" as="geometry">
            <mxPoint x="40" y="190" as="sourcePoint" />
            <mxPoint x="160.00000000000023" y="240" as="targetPoint" />
          </mxGeometry>
        </mxCell>
        <mxCell id="uI0lJ6XtZj-DLdQhZyMz-63" value="" style="endArrow=none;html=1;rounded=0;entryX=0.75;entryY=0;entryDx=0;entryDy=0;strokeColor=#00CC00;" parent="FcqBtxRYaPF_6iqim7l_-1" target="DtENKFP9RfX3sww3IXV_-1" edge="1">
          <mxGeometry width="50" height="50" relative="1" as="geometry">
            <mxPoint x="160" y="370" as="sourcePoint" />
            <mxPoint x="212.00000000000023" y="366" as="targetPoint" />
          </mxGeometry>
        </mxCell>
        <mxCell id="uI0lJ6XtZj-DLdQhZyMz-61" value="" style="endArrow=none;html=1;rounded=0;strokeColor=#FFD966;" parent="FcqBtxRYaPF_6iqim7l_-1" edge="1">
          <mxGeometry width="50" height="50" relative="1" as="geometry">
            <mxPoint x="130" y="320" as="sourcePoint" />
            <mxPoint x="120" y="460" as="targetPoint" />
          </mxGeometry>
        </mxCell>
        <mxCell id="DtENKFP9RfX3sww3IXV_-4" value="" style="endArrow=none;html=1;rounded=0;entryX=0.133;entryY=0;entryDx=0;entryDy=0;strokeColor=#0000FF;entryPerimeter=0;" edge="1" parent="FcqBtxRYaPF_6iqim7l_-1">
          <mxGeometry width="50" height="50" relative="1" as="geometry">
            <mxPoint x="80" y="249.41000000000008" as="sourcePoint" />
            <mxPoint x="90" y="464.4100000000001" as="targetPoint" />
          </mxGeometry>
        </mxCell>
        <mxCell id="9GSbN_EtsKlnB8C5tVky-1" value="" style="endArrow=classic;html=1;rounded=0;exitX=1;exitY=0.25;exitDx=0;exitDy=0;entryX=1.007;entryY=0.959;entryDx=0;entryDy=0;entryPerimeter=0;" edge="1" parent="FcqBtxRYaPF_6iqim7l_-1" source="FcqBtxRYaPF_6iqim7l_-19" target="FcqBtxRYaPF_6iqim7l_-4">
          <mxGeometry width="50" height="50" relative="1" as="geometry">
            <mxPoint x="240" y="400" as="sourcePoint" />
            <mxPoint x="290" y="350" as="targetPoint" />
            <Array as="points">
              <mxPoint x="570" y="494" />
              <mxPoint x="570" y="347" />
            </Array>
          </mxGeometry>
        </mxCell>
        <mxCell id="9GSbN_EtsKlnB8C5tVky-2" value="&lt;font style=&quot;font-size: 15px;&quot;&gt;rs&lt;/font&gt;" style="edgeLabel;html=1;align=center;verticalAlign=middle;resizable=0;points=[];" vertex="1" connectable="0" parent="9GSbN_EtsKlnB8C5tVky-1">
          <mxGeometry x="-0.0274" y="-1" relative="1" as="geometry">
            <mxPoint as="offset" />
          </mxGeometry>
        </mxCell>
        <mxCell id="9GSbN_EtsKlnB8C5tVky-3" value="" style="endArrow=classic;html=1;rounded=0;" edge="1" parent="FcqBtxRYaPF_6iqim7l_-1">
          <mxGeometry width="50" height="50" relative="1" as="geometry">
            <mxPoint x="260" y="523.98" as="sourcePoint" />
            <mxPoint x="320" y="523.98" as="targetPoint" />
            <Array as="points" />
          </mxGeometry>
        </mxCell>
        <mxCell id="9GSbN_EtsKlnB8C5tVky-4" value="reset" style="text;html=1;align=center;verticalAlign=middle;whiteSpace=wrap;rounded=0;" vertex="1" parent="FcqBtxRYaPF_6iqim7l_-1">
          <mxGeometry x="250" y="520" width="60" height="30" as="geometry" />
        </mxCell>
        <mxCell id="9GSbN_EtsKlnB8C5tVky-5" value="reset" style="text;html=1;align=center;verticalAlign=middle;whiteSpace=wrap;rounded=0;" vertex="1" parent="FcqBtxRYaPF_6iqim7l_-1">
          <mxGeometry x="-10" y="410" width="60" height="30" as="geometry" />
        </mxCell>
        <mxCell id="9GSbN_EtsKlnB8C5tVky-6" value="" style="endArrow=classic;html=1;rounded=0;" edge="1" parent="FcqBtxRYaPF_6iqim7l_-1">
          <mxGeometry width="50" height="50" relative="1" as="geometry">
            <mxPoint x="20" y="450" as="sourcePoint" />
            <mxPoint x="40" y="514.41" as="targetPoint" />
            <Array as="points" />
          </mxGeometry>
        </mxCell>
        <mxCell id="FcqBtxRYaPF_6iqim7l_-34" value="" style="endArrow=classic;html=1;rounded=0;" edge="1" parent="1">
          <mxGeometry width="50" height="50" relative="1" as="geometry">
            <mxPoint x="850" y="1120" as="sourcePoint" />
            <mxPoint x="940" y="1120" as="targetPoint" />
          </mxGeometry>
        </mxCell>
        <mxCell id="FcqBtxRYaPF_6iqim7l_-35" value="rs" style="edgeLabel;html=1;align=center;verticalAlign=middle;resizable=0;points=[];fontSize=20;" vertex="1" connectable="0" parent="FcqBtxRYaPF_6iqim7l_-34">
          <mxGeometry x="-0.2183" y="1" relative="1" as="geometry">
            <mxPoint as="offset" />
          </mxGeometry>
        </mxCell>
        <mxCell id="FcqBtxRYaPF_6iqim7l_-36" value="" style="endArrow=classic;html=1;rounded=0;" edge="1" parent="1">
          <mxGeometry width="50" height="50" relative="1" as="geometry">
            <mxPoint x="850" y="1070" as="sourcePoint" />
            <mxPoint x="940" y="1070" as="targetPoint" />
          </mxGeometry>
        </mxCell>
        <mxCell id="FcqBtxRYaPF_6iqim7l_-37" value="rw" style="edgeLabel;html=1;align=center;verticalAlign=middle;resizable=0;points=[];fontSize=20;" vertex="1" connectable="0" parent="FcqBtxRYaPF_6iqim7l_-36">
          <mxGeometry x="-0.2706" y="-1" relative="1" as="geometry">
            <mxPoint x="17" as="offset" />
          </mxGeometry>
        </mxCell>
        <mxCell id="FcqBtxRYaPF_6iqim7l_-38" value="" style="endArrow=classic;html=1;rounded=0;" edge="1" parent="1">
          <mxGeometry width="50" height="50" relative="1" as="geometry">
            <mxPoint x="850" y="1164.4099999999999" as="sourcePoint" />
            <mxPoint x="960" y="1164.4099999999999" as="targetPoint" />
          </mxGeometry>
        </mxCell>
        <mxCell id="FcqBtxRYaPF_6iqim7l_-39" value="data[7:0]" style="edgeLabel;html=1;align=center;verticalAlign=middle;resizable=0;points=[];fontSize=20;" vertex="1" connectable="0" parent="FcqBtxRYaPF_6iqim7l_-38">
          <mxGeometry x="-0.166" y="4" relative="1" as="geometry">
            <mxPoint x="4" y="5" as="offset" />
          </mxGeometry>
        </mxCell>
        <mxCell id="FcqBtxRYaPF_6iqim7l_-40" value="" style="endArrow=classic;html=1;rounded=0;" edge="1" parent="1">
          <mxGeometry width="50" height="50" relative="1" as="geometry">
            <mxPoint x="860" y="980" as="sourcePoint" />
            <mxPoint x="950" y="980" as="targetPoint" />
          </mxGeometry>
        </mxCell>
        <mxCell id="FcqBtxRYaPF_6iqim7l_-41" value="enable" style="edgeLabel;html=1;align=center;verticalAlign=middle;resizable=0;points=[];fontStyle=1;fontSize=16;" vertex="1" connectable="0" parent="FcqBtxRYaPF_6iqim7l_-40">
          <mxGeometry x="-0.0366" relative="1" as="geometry">
            <mxPoint x="-4" y="-20" as="offset" />
          </mxGeometry>
        </mxCell>
        <mxCell id="DtENKFP9RfX3sww3IXV_-2" value="" style="endArrow=none;html=1;rounded=0;exitX=0;exitY=1;exitDx=0;exitDy=0;" edge="1" parent="1">
          <mxGeometry width="50" height="50" relative="1" as="geometry">
            <mxPoint x="241" y="1397.4099999999999" as="sourcePoint" />
            <mxPoint x="255.5" y="1387.4099999999999" as="targetPoint" />
          </mxGeometry>
        </mxCell>
        <mxCell id="DtENKFP9RfX3sww3IXV_-3" value="" style="endArrow=none;html=1;rounded=0;exitX=0;exitY=0.75;exitDx=0;exitDy=0;" edge="1" parent="1">
          <mxGeometry width="50" height="50" relative="1" as="geometry">
            <mxPoint x="241" y="1377.4099999999999" as="sourcePoint" />
            <mxPoint x="255.5" y="1389.4099999999999" as="targetPoint" />
          </mxGeometry>
        </mxCell>
      </root>
    </mxGraphModel>
  </diagram>
  <diagram id="eTyg3RRahVNUq0JbmyAQ" name="viejos">
    <mxGraphModel dx="1050" dy="2275" grid="1" gridSize="10" guides="1" tooltips="1" connect="1" arrows="1" fold="1" page="1" pageScale="1" pageWidth="583" pageHeight="827" math="0" shadow="0">
      <root>
        <mxCell id="0" />
        <mxCell id="1" parent="0" />
        <mxCell id="vsjzKqrtJ2uKR2mr3ZsK-1" value="" style="group" parent="1" vertex="1" connectable="0">
          <mxGeometry x="60" y="-1600" width="640" height="90" as="geometry" />
        </mxCell>
        <mxCell id="vsjzKqrtJ2uKR2mr3ZsK-2" value="" style="group" parent="vsjzKqrtJ2uKR2mr3ZsK-1" vertex="1" connectable="0">
          <mxGeometry width="40" height="80" as="geometry" />
        </mxCell>
        <mxCell id="vsjzKqrtJ2uKR2mr3ZsK-3" value="" style="rounded=0;whiteSpace=wrap;html=1;" parent="vsjzKqrtJ2uKR2mr3ZsK-2" vertex="1">
          <mxGeometry width="40" height="80" as="geometry" />
        </mxCell>
        <mxCell id="vsjzKqrtJ2uKR2mr3ZsK-4" value="" style="endArrow=none;html=1;rounded=0;exitX=0;exitY=0.5;exitDx=0;exitDy=0;entryX=1;entryY=0.5;entryDx=0;entryDy=0;" parent="vsjzKqrtJ2uKR2mr3ZsK-2" source="vsjzKqrtJ2uKR2mr3ZsK-3" target="vsjzKqrtJ2uKR2mr3ZsK-3" edge="1">
          <mxGeometry width="50" height="50" relative="1" as="geometry">
            <mxPoint x="190" y="230" as="sourcePoint" />
            <mxPoint x="240" y="170" as="targetPoint" />
          </mxGeometry>
        </mxCell>
        <mxCell id="vsjzKqrtJ2uKR2mr3ZsK-5" value="" style="group" parent="vsjzKqrtJ2uKR2mr3ZsK-1" vertex="1" connectable="0">
          <mxGeometry x="40" width="73.75" height="90" as="geometry" />
        </mxCell>
        <mxCell id="vsjzKqrtJ2uKR2mr3ZsK-6" value="" style="rounded=0;whiteSpace=wrap;html=1;" parent="vsjzKqrtJ2uKR2mr3ZsK-5" vertex="1">
          <mxGeometry width="40" height="80" as="geometry" />
        </mxCell>
        <mxCell id="vsjzKqrtJ2uKR2mr3ZsK-7" value="" style="endArrow=none;html=1;rounded=0;exitX=0;exitY=0.5;exitDx=0;exitDy=0;entryX=1;entryY=0.5;entryDx=0;entryDy=0;" parent="vsjzKqrtJ2uKR2mr3ZsK-5" source="vsjzKqrtJ2uKR2mr3ZsK-6" target="vsjzKqrtJ2uKR2mr3ZsK-6" edge="1">
          <mxGeometry width="50" height="50" relative="1" as="geometry">
            <mxPoint x="190" y="230" as="sourcePoint" />
            <mxPoint x="240" y="170" as="targetPoint" />
          </mxGeometry>
        </mxCell>
        <mxCell id="vsjzKqrtJ2uKR2mr3ZsK-11" value="" style="group" parent="vsjzKqrtJ2uKR2mr3ZsK-1" vertex="1" connectable="0">
          <mxGeometry x="120" width="40" height="80" as="geometry" />
        </mxCell>
        <mxCell id="vsjzKqrtJ2uKR2mr3ZsK-12" value="" style="rounded=0;whiteSpace=wrap;html=1;" parent="vsjzKqrtJ2uKR2mr3ZsK-11" vertex="1">
          <mxGeometry width="40" height="80" as="geometry" />
        </mxCell>
        <mxCell id="vsjzKqrtJ2uKR2mr3ZsK-13" value="" style="endArrow=none;html=1;rounded=0;exitX=0;exitY=0.5;exitDx=0;exitDy=0;entryX=1;entryY=0.5;entryDx=0;entryDy=0;" parent="vsjzKqrtJ2uKR2mr3ZsK-11" source="vsjzKqrtJ2uKR2mr3ZsK-12" target="vsjzKqrtJ2uKR2mr3ZsK-12" edge="1">
          <mxGeometry width="50" height="50" relative="1" as="geometry">
            <mxPoint x="190" y="230" as="sourcePoint" />
            <mxPoint x="240" y="170" as="targetPoint" />
          </mxGeometry>
        </mxCell>
        <mxCell id="vsjzKqrtJ2uKR2mr3ZsK-14" value="" style="group" parent="vsjzKqrtJ2uKR2mr3ZsK-1" vertex="1" connectable="0">
          <mxGeometry x="160" width="130" height="80" as="geometry" />
        </mxCell>
        <mxCell id="vsjzKqrtJ2uKR2mr3ZsK-15" value="" style="rounded=0;whiteSpace=wrap;html=1;" parent="vsjzKqrtJ2uKR2mr3ZsK-14" vertex="1">
          <mxGeometry width="40" height="80" as="geometry" />
        </mxCell>
        <mxCell id="vsjzKqrtJ2uKR2mr3ZsK-16" value="" style="endArrow=none;html=1;rounded=0;exitX=0;exitY=0.5;exitDx=0;exitDy=0;entryX=1;entryY=0.5;entryDx=0;entryDy=0;" parent="vsjzKqrtJ2uKR2mr3ZsK-14" source="vsjzKqrtJ2uKR2mr3ZsK-15" target="vsjzKqrtJ2uKR2mr3ZsK-15" edge="1">
          <mxGeometry width="50" height="50" relative="1" as="geometry">
            <mxPoint x="190" y="230" as="sourcePoint" />
            <mxPoint x="240" y="170" as="targetPoint" />
          </mxGeometry>
        </mxCell>
        <mxCell id="vsjzKqrtJ2uKR2mr3ZsK-17" value="&lt;span style=&quot;font-size: 30px;&quot;&gt;F&lt;/span&gt;" style="text;html=1;align=center;verticalAlign=middle;whiteSpace=wrap;rounded=0;" parent="vsjzKqrtJ2uKR2mr3ZsK-14" vertex="1">
          <mxGeometry width="40" height="40" as="geometry" />
        </mxCell>
        <mxCell id="vsjzKqrtJ2uKR2mr3ZsK-18" value="&lt;span style=&quot;font-size: 30px;&quot;&gt;E&lt;/span&gt;" style="text;html=1;align=center;verticalAlign=middle;whiteSpace=wrap;rounded=0;" parent="vsjzKqrtJ2uKR2mr3ZsK-14" vertex="1">
          <mxGeometry y="40" width="40" height="40" as="geometry" />
        </mxCell>
        <mxCell id="vsjzKqrtJ2uKR2mr3ZsK-19" value="" style="group" parent="vsjzKqrtJ2uKR2mr3ZsK-1" vertex="1" connectable="0">
          <mxGeometry x="200" width="60" height="80" as="geometry" />
        </mxCell>
        <mxCell id="vsjzKqrtJ2uKR2mr3ZsK-20" value="" style="rounded=0;whiteSpace=wrap;html=1;" parent="vsjzKqrtJ2uKR2mr3ZsK-19" vertex="1">
          <mxGeometry width="40" height="80" as="geometry" />
        </mxCell>
        <mxCell id="vsjzKqrtJ2uKR2mr3ZsK-21" value="" style="endArrow=none;html=1;rounded=0;exitX=0;exitY=0.5;exitDx=0;exitDy=0;entryX=1;entryY=0.5;entryDx=0;entryDy=0;" parent="vsjzKqrtJ2uKR2mr3ZsK-19" source="vsjzKqrtJ2uKR2mr3ZsK-20" target="vsjzKqrtJ2uKR2mr3ZsK-20" edge="1">
          <mxGeometry width="50" height="50" relative="1" as="geometry">
            <mxPoint x="190" y="230" as="sourcePoint" />
            <mxPoint x="240" y="170" as="targetPoint" />
          </mxGeometry>
        </mxCell>
        <mxCell id="vsjzKqrtJ2uKR2mr3ZsK-22" value="&lt;span style=&quot;font-size: 30px;&quot;&gt;O&lt;/span&gt;" style="text;html=1;align=center;verticalAlign=middle;whiteSpace=wrap;rounded=0;" parent="vsjzKqrtJ2uKR2mr3ZsK-19" vertex="1">
          <mxGeometry width="40" height="40" as="geometry" />
        </mxCell>
        <mxCell id="vsjzKqrtJ2uKR2mr3ZsK-23" value="&lt;span style=&quot;font-size: 30px;&quot;&gt;N&lt;/span&gt;" style="text;html=1;align=center;verticalAlign=middle;whiteSpace=wrap;rounded=0;" parent="vsjzKqrtJ2uKR2mr3ZsK-19" vertex="1">
          <mxGeometry y="40" width="40" height="40" as="geometry" />
        </mxCell>
        <mxCell id="vsjzKqrtJ2uKR2mr3ZsK-24" value="" style="group" parent="vsjzKqrtJ2uKR2mr3ZsK-1" vertex="1" connectable="0">
          <mxGeometry x="240" width="40" height="80" as="geometry" />
        </mxCell>
        <mxCell id="vsjzKqrtJ2uKR2mr3ZsK-25" value="" style="rounded=0;whiteSpace=wrap;html=1;" parent="vsjzKqrtJ2uKR2mr3ZsK-24" vertex="1">
          <mxGeometry width="40" height="80" as="geometry" />
        </mxCell>
        <mxCell id="vsjzKqrtJ2uKR2mr3ZsK-26" value="" style="endArrow=none;html=1;rounded=0;exitX=0;exitY=0.5;exitDx=0;exitDy=0;entryX=1;entryY=0.5;entryDx=0;entryDy=0;" parent="vsjzKqrtJ2uKR2mr3ZsK-24" source="vsjzKqrtJ2uKR2mr3ZsK-25" target="vsjzKqrtJ2uKR2mr3ZsK-25" edge="1">
          <mxGeometry width="50" height="50" relative="1" as="geometry">
            <mxPoint x="190" y="230" as="sourcePoint" />
            <mxPoint x="240" y="170" as="targetPoint" />
          </mxGeometry>
        </mxCell>
        <mxCell id="vsjzKqrtJ2uKR2mr3ZsK-27" value="&lt;span style=&quot;font-size: 30px;&quot;&gt;O&lt;/span&gt;" style="text;html=1;align=center;verticalAlign=middle;whiteSpace=wrap;rounded=0;" parent="vsjzKqrtJ2uKR2mr3ZsK-24" vertex="1">
          <mxGeometry width="40" height="40" as="geometry" />
        </mxCell>
        <mxCell id="vsjzKqrtJ2uKR2mr3ZsK-28" value="&lt;span style=&quot;font-size: 30px;&quot;&gt;E&lt;/span&gt;" style="text;html=1;align=center;verticalAlign=middle;whiteSpace=wrap;rounded=0;" parent="vsjzKqrtJ2uKR2mr3ZsK-24" vertex="1">
          <mxGeometry y="40" width="40" height="40" as="geometry" />
        </mxCell>
        <mxCell id="vsjzKqrtJ2uKR2mr3ZsK-29" value="" style="group" parent="vsjzKqrtJ2uKR2mr3ZsK-1" vertex="1" connectable="0">
          <mxGeometry x="280" width="40" height="80" as="geometry" />
        </mxCell>
        <mxCell id="vsjzKqrtJ2uKR2mr3ZsK-30" value="" style="rounded=0;whiteSpace=wrap;html=1;" parent="vsjzKqrtJ2uKR2mr3ZsK-29" vertex="1">
          <mxGeometry width="40" height="80" as="geometry" />
        </mxCell>
        <mxCell id="vsjzKqrtJ2uKR2mr3ZsK-31" value="" style="endArrow=none;html=1;rounded=0;exitX=0;exitY=0.5;exitDx=0;exitDy=0;entryX=1;entryY=0.5;entryDx=0;entryDy=0;" parent="vsjzKqrtJ2uKR2mr3ZsK-29" source="vsjzKqrtJ2uKR2mr3ZsK-30" target="vsjzKqrtJ2uKR2mr3ZsK-30" edge="1">
          <mxGeometry width="50" height="50" relative="1" as="geometry">
            <mxPoint x="190" y="230" as="sourcePoint" />
            <mxPoint x="240" y="170" as="targetPoint" />
          </mxGeometry>
        </mxCell>
        <mxCell id="vsjzKqrtJ2uKR2mr3ZsK-32" value="&lt;span style=&quot;font-size: 30px;&quot;&gt;D&lt;/span&gt;" style="text;html=1;align=center;verticalAlign=middle;whiteSpace=wrap;rounded=0;" parent="vsjzKqrtJ2uKR2mr3ZsK-29" vertex="1">
          <mxGeometry width="40" height="40" as="geometry" />
        </mxCell>
        <mxCell id="vsjzKqrtJ2uKR2mr3ZsK-33" value="&lt;span style=&quot;font-size: 30px;&quot;&gt;R&lt;/span&gt;" style="text;html=1;align=center;verticalAlign=middle;whiteSpace=wrap;rounded=0;" parent="vsjzKqrtJ2uKR2mr3ZsK-29" vertex="1">
          <mxGeometry y="40" width="40" height="40" as="geometry" />
        </mxCell>
        <mxCell id="vsjzKqrtJ2uKR2mr3ZsK-34" value="" style="group" parent="vsjzKqrtJ2uKR2mr3ZsK-1" vertex="1" connectable="0">
          <mxGeometry x="320" width="40" height="80" as="geometry" />
        </mxCell>
        <mxCell id="vsjzKqrtJ2uKR2mr3ZsK-35" value="" style="rounded=0;whiteSpace=wrap;html=1;" parent="vsjzKqrtJ2uKR2mr3ZsK-34" vertex="1">
          <mxGeometry width="40" height="80" as="geometry" />
        </mxCell>
        <mxCell id="vsjzKqrtJ2uKR2mr3ZsK-36" value="" style="endArrow=none;html=1;rounded=0;exitX=0;exitY=0.5;exitDx=0;exitDy=0;entryX=1;entryY=0.5;entryDx=0;entryDy=0;" parent="vsjzKqrtJ2uKR2mr3ZsK-34" source="vsjzKqrtJ2uKR2mr3ZsK-35" target="vsjzKqrtJ2uKR2mr3ZsK-35" edge="1">
          <mxGeometry width="50" height="50" relative="1" as="geometry">
            <mxPoint x="190" y="230" as="sourcePoint" />
            <mxPoint x="240" y="170" as="targetPoint" />
          </mxGeometry>
        </mxCell>
        <mxCell id="vsjzKqrtJ2uKR2mr3ZsK-37" value="&lt;span style=&quot;font-size: 30px;&quot;&gt;G&lt;/span&gt;" style="text;html=1;align=center;verticalAlign=middle;whiteSpace=wrap;rounded=0;" parent="vsjzKqrtJ2uKR2mr3ZsK-34" vertex="1">
          <mxGeometry y="40" width="40" height="40" as="geometry" />
        </mxCell>
        <mxCell id="vsjzKqrtJ2uKR2mr3ZsK-38" value="" style="group" parent="vsjzKqrtJ2uKR2mr3ZsK-1" vertex="1" connectable="0">
          <mxGeometry x="360" width="40" height="80" as="geometry" />
        </mxCell>
        <mxCell id="vsjzKqrtJ2uKR2mr3ZsK-39" value="" style="rounded=0;whiteSpace=wrap;html=1;" parent="vsjzKqrtJ2uKR2mr3ZsK-38" vertex="1">
          <mxGeometry width="40" height="80" as="geometry" />
        </mxCell>
        <mxCell id="vsjzKqrtJ2uKR2mr3ZsK-40" value="" style="endArrow=none;html=1;rounded=0;exitX=0;exitY=0.5;exitDx=0;exitDy=0;entryX=1;entryY=0.5;entryDx=0;entryDy=0;" parent="vsjzKqrtJ2uKR2mr3ZsK-38" source="vsjzKqrtJ2uKR2mr3ZsK-39" target="vsjzKqrtJ2uKR2mr3ZsK-39" edge="1">
          <mxGeometry width="50" height="50" relative="1" as="geometry">
            <mxPoint x="190" y="230" as="sourcePoint" />
            <mxPoint x="240" y="170" as="targetPoint" />
          </mxGeometry>
        </mxCell>
        <mxCell id="vsjzKqrtJ2uKR2mr3ZsK-41" value="&lt;span style=&quot;font-size: 30px;&quot;&gt;Y&lt;/span&gt;" style="text;html=1;align=center;verticalAlign=middle;whiteSpace=wrap;rounded=0;" parent="vsjzKqrtJ2uKR2mr3ZsK-38" vertex="1">
          <mxGeometry y="40" width="40" height="40" as="geometry" />
        </mxCell>
        <mxCell id="vsjzKqrtJ2uKR2mr3ZsK-42" value="&lt;font style=&quot;font-size: 30px;&quot;&gt;5&lt;/font&gt;" style="text;html=1;align=center;verticalAlign=middle;whiteSpace=wrap;rounded=0;" parent="vsjzKqrtJ2uKR2mr3ZsK-38" vertex="1">
          <mxGeometry width="40" height="40" as="geometry" />
        </mxCell>
        <mxCell id="vsjzKqrtJ2uKR2mr3ZsK-43" value="" style="group" parent="vsjzKqrtJ2uKR2mr3ZsK-1" vertex="1" connectable="0">
          <mxGeometry x="400" width="40" height="80" as="geometry" />
        </mxCell>
        <mxCell id="vsjzKqrtJ2uKR2mr3ZsK-44" value="" style="rounded=0;whiteSpace=wrap;html=1;" parent="vsjzKqrtJ2uKR2mr3ZsK-43" vertex="1">
          <mxGeometry width="40" height="80" as="geometry" />
        </mxCell>
        <mxCell id="vsjzKqrtJ2uKR2mr3ZsK-45" value="" style="endArrow=none;html=1;rounded=0;exitX=0;exitY=0.5;exitDx=0;exitDy=0;entryX=1;entryY=0.5;entryDx=0;entryDy=0;" parent="vsjzKqrtJ2uKR2mr3ZsK-43" source="vsjzKqrtJ2uKR2mr3ZsK-44" target="vsjzKqrtJ2uKR2mr3ZsK-44" edge="1">
          <mxGeometry width="50" height="50" relative="1" as="geometry">
            <mxPoint x="190" y="230" as="sourcePoint" />
            <mxPoint x="240" y="170" as="targetPoint" />
          </mxGeometry>
        </mxCell>
        <mxCell id="vsjzKqrtJ2uKR2mr3ZsK-46" value="" style="group" parent="vsjzKqrtJ2uKR2mr3ZsK-1" vertex="1" connectable="0">
          <mxGeometry x="440" width="40" height="80" as="geometry" />
        </mxCell>
        <mxCell id="vsjzKqrtJ2uKR2mr3ZsK-47" value="" style="rounded=0;whiteSpace=wrap;html=1;" parent="vsjzKqrtJ2uKR2mr3ZsK-46" vertex="1">
          <mxGeometry width="40" height="80" as="geometry" />
        </mxCell>
        <mxCell id="vsjzKqrtJ2uKR2mr3ZsK-48" value="" style="endArrow=none;html=1;rounded=0;exitX=0;exitY=0.5;exitDx=0;exitDy=0;entryX=1;entryY=0.5;entryDx=0;entryDy=0;" parent="vsjzKqrtJ2uKR2mr3ZsK-46" source="vsjzKqrtJ2uKR2mr3ZsK-47" target="vsjzKqrtJ2uKR2mr3ZsK-47" edge="1">
          <mxGeometry width="50" height="50" relative="1" as="geometry">
            <mxPoint x="190" y="230" as="sourcePoint" />
            <mxPoint x="240" y="170" as="targetPoint" />
          </mxGeometry>
        </mxCell>
        <mxCell id="vsjzKqrtJ2uKR2mr3ZsK-49" value="&lt;span style=&quot;font-size: 30px;&quot;&gt;J&lt;/span&gt;" style="text;html=1;align=center;verticalAlign=middle;whiteSpace=wrap;rounded=0;" parent="vsjzKqrtJ2uKR2mr3ZsK-46" vertex="1">
          <mxGeometry width="40" height="40" as="geometry" />
        </mxCell>
        <mxCell id="vsjzKqrtJ2uKR2mr3ZsK-50" value="&lt;font style=&quot;font-size: 30px;&quot;&gt;5&lt;/font&gt;" style="text;html=1;align=center;verticalAlign=middle;whiteSpace=wrap;rounded=0;" parent="vsjzKqrtJ2uKR2mr3ZsK-46" vertex="1">
          <mxGeometry y="40" width="40" height="40" as="geometry" />
        </mxCell>
        <mxCell id="vsjzKqrtJ2uKR2mr3ZsK-51" value="" style="group" parent="vsjzKqrtJ2uKR2mr3ZsK-1" vertex="1" connectable="0">
          <mxGeometry x="480" width="40" height="80" as="geometry" />
        </mxCell>
        <mxCell id="vsjzKqrtJ2uKR2mr3ZsK-52" value="" style="rounded=0;whiteSpace=wrap;html=1;" parent="vsjzKqrtJ2uKR2mr3ZsK-51" vertex="1">
          <mxGeometry width="40" height="80" as="geometry" />
        </mxCell>
        <mxCell id="vsjzKqrtJ2uKR2mr3ZsK-53" value="" style="endArrow=none;html=1;rounded=0;exitX=0;exitY=0.5;exitDx=0;exitDy=0;entryX=1;entryY=0.5;entryDx=0;entryDy=0;" parent="vsjzKqrtJ2uKR2mr3ZsK-51" source="vsjzKqrtJ2uKR2mr3ZsK-52" target="vsjzKqrtJ2uKR2mr3ZsK-52" edge="1">
          <mxGeometry width="50" height="50" relative="1" as="geometry">
            <mxPoint x="190" y="230" as="sourcePoint" />
            <mxPoint x="240" y="170" as="targetPoint" />
          </mxGeometry>
        </mxCell>
        <mxCell id="vsjzKqrtJ2uKR2mr3ZsK-54" value="&lt;span style=&quot;font-size: 30px;&quot;&gt;O&lt;/span&gt;" style="text;html=1;align=center;verticalAlign=middle;whiteSpace=wrap;rounded=0;" parent="vsjzKqrtJ2uKR2mr3ZsK-51" vertex="1">
          <mxGeometry width="40" height="40" as="geometry" />
        </mxCell>
        <mxCell id="vsjzKqrtJ2uKR2mr3ZsK-55" value="" style="group" parent="vsjzKqrtJ2uKR2mr3ZsK-1" vertex="1" connectable="0">
          <mxGeometry x="520" width="40" height="80" as="geometry" />
        </mxCell>
        <mxCell id="vsjzKqrtJ2uKR2mr3ZsK-56" value="" style="rounded=0;whiteSpace=wrap;html=1;" parent="vsjzKqrtJ2uKR2mr3ZsK-55" vertex="1">
          <mxGeometry width="40" height="80" as="geometry" />
        </mxCell>
        <mxCell id="vsjzKqrtJ2uKR2mr3ZsK-57" value="" style="endArrow=none;html=1;rounded=0;exitX=0;exitY=0.5;exitDx=0;exitDy=0;entryX=1;entryY=0.5;entryDx=0;entryDy=0;" parent="vsjzKqrtJ2uKR2mr3ZsK-55" source="vsjzKqrtJ2uKR2mr3ZsK-56" target="vsjzKqrtJ2uKR2mr3ZsK-56" edge="1">
          <mxGeometry width="50" height="50" relative="1" as="geometry">
            <mxPoint x="190" y="230" as="sourcePoint" />
            <mxPoint x="240" y="170" as="targetPoint" />
          </mxGeometry>
        </mxCell>
        <mxCell id="vsjzKqrtJ2uKR2mr3ZsK-58" value="&lt;span style=&quot;font-size: 30px;&quot;&gt;Y&lt;/span&gt;" style="text;html=1;align=center;verticalAlign=middle;whiteSpace=wrap;rounded=0;" parent="vsjzKqrtJ2uKR2mr3ZsK-55" vertex="1">
          <mxGeometry width="40" height="40" as="geometry" />
        </mxCell>
        <mxCell id="vsjzKqrtJ2uKR2mr3ZsK-59" value="" style="group" parent="vsjzKqrtJ2uKR2mr3ZsK-1" vertex="1" connectable="0">
          <mxGeometry x="560" width="40" height="80" as="geometry" />
        </mxCell>
        <mxCell id="vsjzKqrtJ2uKR2mr3ZsK-60" value="" style="rounded=0;whiteSpace=wrap;html=1;" parent="vsjzKqrtJ2uKR2mr3ZsK-59" vertex="1">
          <mxGeometry width="40" height="80" as="geometry" />
        </mxCell>
        <mxCell id="vsjzKqrtJ2uKR2mr3ZsK-61" value="" style="endArrow=none;html=1;rounded=0;exitX=0;exitY=0.5;exitDx=0;exitDy=0;entryX=1;entryY=0.5;entryDx=0;entryDy=0;" parent="vsjzKqrtJ2uKR2mr3ZsK-59" source="vsjzKqrtJ2uKR2mr3ZsK-60" target="vsjzKqrtJ2uKR2mr3ZsK-60" edge="1">
          <mxGeometry width="50" height="50" relative="1" as="geometry">
            <mxPoint x="190" y="230" as="sourcePoint" />
            <mxPoint x="240" y="170" as="targetPoint" />
          </mxGeometry>
        </mxCell>
        <mxCell id="vsjzKqrtJ2uKR2mr3ZsK-62" value="" style="group" parent="vsjzKqrtJ2uKR2mr3ZsK-1" vertex="1" connectable="0">
          <mxGeometry x="600" width="40" height="80" as="geometry" />
        </mxCell>
        <mxCell id="vsjzKqrtJ2uKR2mr3ZsK-63" value="" style="rounded=0;whiteSpace=wrap;html=1;" parent="vsjzKqrtJ2uKR2mr3ZsK-62" vertex="1">
          <mxGeometry width="40" height="80" as="geometry" />
        </mxCell>
        <mxCell id="vsjzKqrtJ2uKR2mr3ZsK-64" value="" style="endArrow=none;html=1;rounded=0;exitX=0;exitY=0.5;exitDx=0;exitDy=0;entryX=1;entryY=0.5;entryDx=0;entryDy=0;" parent="vsjzKqrtJ2uKR2mr3ZsK-62" source="vsjzKqrtJ2uKR2mr3ZsK-63" target="vsjzKqrtJ2uKR2mr3ZsK-63" edge="1">
          <mxGeometry width="50" height="50" relative="1" as="geometry">
            <mxPoint x="190" y="230" as="sourcePoint" />
            <mxPoint x="240" y="170" as="targetPoint" />
          </mxGeometry>
        </mxCell>
        <mxCell id="vsjzKqrtJ2uKR2mr3ZsK-65" value="&lt;font style=&quot;font-size: 30px;&quot;&gt;5&lt;/font&gt;" style="text;html=1;align=center;verticalAlign=middle;whiteSpace=wrap;rounded=0;" parent="vsjzKqrtJ2uKR2mr3ZsK-62" vertex="1">
          <mxGeometry width="40" height="40" as="geometry" />
        </mxCell>
        <mxCell id="ubXMZwC0Lajnx8_o4sSJ-1" value="LCD1602_CONTROLLER" style="swimlane;whiteSpace=wrap;html=1;fillColor=#B3B3B3;" vertex="1" parent="1">
          <mxGeometry x="230" y="-1450" width="860" height="590" as="geometry" />
        </mxCell>
        <mxCell id="ubXMZwC0Lajnx8_o4sSJ-2" value="task_manager" style="swimlane;whiteSpace=wrap;html=1;startSize=23;fillColor=#B3B3B3;" vertex="1" parent="ubXMZwC0Lajnx8_o4sSJ-1">
          <mxGeometry x="47" y="50" width="393" height="500" as="geometry" />
        </mxCell>
        <mxCell id="ubXMZwC0Lajnx8_o4sSJ-3" value="checker" style="swimlane;whiteSpace=wrap;html=1;fillColor=#B3B3B3;" vertex="1" parent="ubXMZwC0Lajnx8_o4sSJ-2">
          <mxGeometry x="63" y="40" width="77" height="90" as="geometry" />
        </mxCell>
        <mxCell id="ubXMZwC0Lajnx8_o4sSJ-4" value="" style="endArrow=none;html=1;rounded=0;exitX=0;exitY=1;exitDx=0;exitDy=0;" edge="1" parent="ubXMZwC0Lajnx8_o4sSJ-2" source="ubXMZwC0Lajnx8_o4sSJ-3">
          <mxGeometry width="50" height="50" relative="1" as="geometry">
            <mxPoint x="147.5" y="150" as="sourcePoint" />
            <mxPoint x="77.5" y="120" as="targetPoint" />
          </mxGeometry>
        </mxCell>
        <mxCell id="ubXMZwC0Lajnx8_o4sSJ-5" value="" style="endArrow=none;html=1;rounded=0;exitX=0;exitY=0.75;exitDx=0;exitDy=0;" edge="1" parent="ubXMZwC0Lajnx8_o4sSJ-2" source="ubXMZwC0Lajnx8_o4sSJ-3">
          <mxGeometry width="50" height="50" relative="1" as="geometry">
            <mxPoint x="67.5" y="110" as="sourcePoint" />
            <mxPoint x="77.5" y="120" as="targetPoint" />
          </mxGeometry>
        </mxCell>
        <mxCell id="ubXMZwC0Lajnx8_o4sSJ-6" value="" style="endArrow=none;dashed=1;html=1;dashPattern=1 3;strokeWidth=2;rounded=0;" edge="1" parent="ubXMZwC0Lajnx8_o4sSJ-2">
          <mxGeometry width="50" height="50" relative="1" as="geometry">
            <mxPoint x="31" y="490" as="sourcePoint" />
            <mxPoint x="31" y="50" as="targetPoint" />
          </mxGeometry>
        </mxCell>
        <mxCell id="ubXMZwC0Lajnx8_o4sSJ-7" value="" style="endArrow=classic;html=1;rounded=0;exitX=1;exitY=0.75;exitDx=0;exitDy=0;entryX=0.368;entryY=0.055;entryDx=0;entryDy=0;entryPerimeter=0;" edge="1" parent="ubXMZwC0Lajnx8_o4sSJ-2" source="ubXMZwC0Lajnx8_o4sSJ-3" target="ubXMZwC0Lajnx8_o4sSJ-9">
          <mxGeometry width="50" height="50" relative="1" as="geometry">
            <mxPoint x="135" y="90" as="sourcePoint" />
            <mxPoint x="218" y="155" as="targetPoint" />
            <Array as="points">
              <mxPoint x="253" y="107" />
              <mxPoint x="302" y="107" />
            </Array>
          </mxGeometry>
        </mxCell>
        <mxCell id="ubXMZwC0Lajnx8_o4sSJ-8" value="change_face" style="edgeLabel;html=1;align=center;verticalAlign=middle;resizable=0;points=[];fontSize=15;" vertex="1" connectable="0" parent="ubXMZwC0Lajnx8_o4sSJ-7">
          <mxGeometry x="-0.0195" y="-1" relative="1" as="geometry">
            <mxPoint x="-13" y="-3" as="offset" />
          </mxGeometry>
        </mxCell>
        <mxCell id="ubXMZwC0Lajnx8_o4sSJ-9" value="" style="whiteSpace=wrap;html=1;aspect=fixed;" vertex="1" parent="ubXMZwC0Lajnx8_o4sSJ-2">
          <mxGeometry x="273" y="170" width="80" height="80" as="geometry" />
        </mxCell>
        <mxCell id="ubXMZwC0Lajnx8_o4sSJ-10" value="checker" style="swimlane;whiteSpace=wrap;html=1;startSize=23;fillColor=#B3B3B3;" vertex="1" parent="ubXMZwC0Lajnx8_o4sSJ-2">
          <mxGeometry x="63" y="150" width="77" height="90" as="geometry" />
        </mxCell>
        <mxCell id="ubXMZwC0Lajnx8_o4sSJ-11" value="checker" style="swimlane;whiteSpace=wrap;html=1;startSize=23;fillColor=#B3B3B3;" vertex="1" parent="ubXMZwC0Lajnx8_o4sSJ-2">
          <mxGeometry x="63" y="260" width="77" height="90" as="geometry" />
        </mxCell>
        <mxCell id="ubXMZwC0Lajnx8_o4sSJ-12" value="" style="endArrow=none;html=1;rounded=0;exitX=0;exitY=1;exitDx=0;exitDy=0;" edge="1" parent="ubXMZwC0Lajnx8_o4sSJ-11">
          <mxGeometry width="50" height="50" relative="1" as="geometry">
            <mxPoint y="90" as="sourcePoint" />
            <mxPoint x="14.5" y="80" as="targetPoint" />
          </mxGeometry>
        </mxCell>
        <mxCell id="ubXMZwC0Lajnx8_o4sSJ-13" value="" style="endArrow=none;html=1;rounded=0;exitX=0;exitY=0.75;exitDx=0;exitDy=0;" edge="1" parent="ubXMZwC0Lajnx8_o4sSJ-11">
          <mxGeometry width="50" height="50" relative="1" as="geometry">
            <mxPoint y="68" as="sourcePoint" />
            <mxPoint x="14.5" y="80" as="targetPoint" />
          </mxGeometry>
        </mxCell>
        <mxCell id="ubXMZwC0Lajnx8_o4sSJ-14" value="checker" style="swimlane;whiteSpace=wrap;html=1;startSize=23;fillColor=#B3B3B3;" vertex="1" parent="ubXMZwC0Lajnx8_o4sSJ-2">
          <mxGeometry x="63" y="370" width="77" height="90" as="geometry" />
        </mxCell>
        <mxCell id="ubXMZwC0Lajnx8_o4sSJ-15" value="" style="endArrow=classic;html=1;rounded=0;exitX=1;exitY=0.5;exitDx=0;exitDy=0;entryX=0;entryY=0.25;entryDx=0;entryDy=0;" edge="1" parent="ubXMZwC0Lajnx8_o4sSJ-2" source="ubXMZwC0Lajnx8_o4sSJ-10" target="ubXMZwC0Lajnx8_o4sSJ-9">
          <mxGeometry width="50" height="50" relative="1" as="geometry">
            <mxPoint x="473" y="160" as="sourcePoint" />
            <mxPoint x="523" y="110" as="targetPoint" />
          </mxGeometry>
        </mxCell>
        <mxCell id="ubXMZwC0Lajnx8_o4sSJ-16" value="food_change" style="edgeLabel;html=1;align=center;verticalAlign=middle;resizable=0;points=[];fontSize=15;" vertex="1" connectable="0" parent="ubXMZwC0Lajnx8_o4sSJ-15">
          <mxGeometry x="-0.2827" y="-4" relative="1" as="geometry">
            <mxPoint x="16" y="-7" as="offset" />
          </mxGeometry>
        </mxCell>
        <mxCell id="ubXMZwC0Lajnx8_o4sSJ-17" value="" style="endArrow=classic;html=1;rounded=0;exitX=1;exitY=0.75;exitDx=0;exitDy=0;entryX=0.25;entryY=1;entryDx=0;entryDy=0;" edge="1" parent="ubXMZwC0Lajnx8_o4sSJ-2" source="ubXMZwC0Lajnx8_o4sSJ-11" target="ubXMZwC0Lajnx8_o4sSJ-9">
          <mxGeometry width="50" height="50" relative="1" as="geometry">
            <mxPoint x="473" y="160" as="sourcePoint" />
            <mxPoint x="293" y="300" as="targetPoint" />
            <Array as="points">
              <mxPoint x="293" y="328" />
            </Array>
          </mxGeometry>
        </mxCell>
        <mxCell id="ubXMZwC0Lajnx8_o4sSJ-18" value="energy_change" style="edgeLabel;html=1;align=center;verticalAlign=middle;resizable=0;points=[];fontSize=15;" vertex="1" connectable="0" parent="ubXMZwC0Lajnx8_o4sSJ-17">
          <mxGeometry x="-0.0541" relative="1" as="geometry">
            <mxPoint as="offset" />
          </mxGeometry>
        </mxCell>
        <mxCell id="ubXMZwC0Lajnx8_o4sSJ-19" value="" style="endArrow=classic;html=1;rounded=0;entryX=0.5;entryY=1;entryDx=0;entryDy=0;" edge="1" parent="ubXMZwC0Lajnx8_o4sSJ-2" target="ubXMZwC0Lajnx8_o4sSJ-9">
          <mxGeometry width="50" height="50" relative="1" as="geometry">
            <mxPoint x="140" y="430" as="sourcePoint" />
            <mxPoint x="190" y="380" as="targetPoint" />
            <Array as="points">
              <mxPoint x="313" y="430" />
            </Array>
          </mxGeometry>
        </mxCell>
        <mxCell id="ubXMZwC0Lajnx8_o4sSJ-20" value="joy_value" style="edgeLabel;html=1;align=center;verticalAlign=middle;resizable=0;points=[];fontSize=15;" vertex="1" connectable="0" parent="ubXMZwC0Lajnx8_o4sSJ-19">
          <mxGeometry x="0.162" y="-5" relative="1" as="geometry">
            <mxPoint x="-65" y="40" as="offset" />
          </mxGeometry>
        </mxCell>
        <mxCell id="ubXMZwC0Lajnx8_o4sSJ-21" value="" style="endArrow=none;dashed=1;html=1;dashPattern=1 3;strokeWidth=2;rounded=0;entryX=0.75;entryY=1;entryDx=0;entryDy=0;" edge="1" parent="ubXMZwC0Lajnx8_o4sSJ-2" target="ubXMZwC0Lajnx8_o4sSJ-9">
          <mxGeometry width="50" height="50" relative="1" as="geometry">
            <mxPoint x="33" y="490" as="sourcePoint" />
            <mxPoint x="333" y="400" as="targetPoint" />
            <Array as="points">
              <mxPoint x="333" y="490" />
            </Array>
          </mxGeometry>
        </mxCell>
        <mxCell id="ubXMZwC0Lajnx8_o4sSJ-22" value="" style="endArrow=classic;html=1;rounded=0;entryX=0;entryY=0.25;entryDx=0;entryDy=0;" edge="1" parent="ubXMZwC0Lajnx8_o4sSJ-1" target="ubXMZwC0Lajnx8_o4sSJ-24">
          <mxGeometry width="50" height="50" relative="1" as="geometry">
            <mxPoint x="460" y="148" as="sourcePoint" />
            <mxPoint x="540" y="50" as="targetPoint" />
          </mxGeometry>
        </mxCell>
        <mxCell id="ubXMZwC0Lajnx8_o4sSJ-23" value="clk" style="edgeLabel;html=1;align=center;verticalAlign=middle;resizable=0;points=[];" vertex="1" connectable="0" parent="ubXMZwC0Lajnx8_o4sSJ-22">
          <mxGeometry x="-0.1985" y="-1" relative="1" as="geometry">
            <mxPoint as="offset" />
          </mxGeometry>
        </mxCell>
        <mxCell id="ubXMZwC0Lajnx8_o4sSJ-24" value="" style="swimlane;startSize=0;" vertex="1" parent="ubXMZwC0Lajnx8_o4sSJ-1">
          <mxGeometry x="550" y="70" width="260" height="310" as="geometry" />
        </mxCell>
        <mxCell id="ubXMZwC0Lajnx8_o4sSJ-25" style="edgeStyle=orthogonalEdgeStyle;rounded=0;orthogonalLoop=1;jettySize=auto;html=1;" edge="1" parent="ubXMZwC0Lajnx8_o4sSJ-24" source="ubXMZwC0Lajnx8_o4sSJ-27">
          <mxGeometry relative="1" as="geometry">
            <mxPoint x="330" y="99" as="targetPoint" />
          </mxGeometry>
        </mxCell>
        <mxCell id="ubXMZwC0Lajnx8_o4sSJ-26" value="clk_16ms" style="edgeLabel;html=1;align=center;verticalAlign=middle;resizable=0;points=[];" vertex="1" connectable="0" parent="ubXMZwC0Lajnx8_o4sSJ-25">
          <mxGeometry x="-0.577" y="4" relative="1" as="geometry">
            <mxPoint as="offset" />
          </mxGeometry>
        </mxCell>
        <mxCell id="ubXMZwC0Lajnx8_o4sSJ-27" value="divisor de frecuencia" style="rounded=0;whiteSpace=wrap;html=1;" vertex="1" parent="ubXMZwC0Lajnx8_o4sSJ-24">
          <mxGeometry x="30" y="54" width="140" height="46" as="geometry" />
        </mxCell>
        <mxCell id="ubXMZwC0Lajnx8_o4sSJ-28" value="FSM" style="rounded=0;whiteSpace=wrap;html=1;" vertex="1" parent="ubXMZwC0Lajnx8_o4sSJ-24">
          <mxGeometry x="30" y="125" width="140" height="155" as="geometry" />
        </mxCell>
        <mxCell id="ubXMZwC0Lajnx8_o4sSJ-29" value="" style="endArrow=none;html=1;rounded=0;exitX=0;exitY=0.5;exitDx=0;exitDy=0;entryX=0;entryY=0.25;entryDx=0;entryDy=0;" edge="1" parent="ubXMZwC0Lajnx8_o4sSJ-24" source="ubXMZwC0Lajnx8_o4sSJ-27" target="ubXMZwC0Lajnx8_o4sSJ-24">
          <mxGeometry width="50" height="50" relative="1" as="geometry">
            <mxPoint x="-190" y="330" as="sourcePoint" />
            <mxPoint x="-140" y="280" as="targetPoint" />
          </mxGeometry>
        </mxCell>
        <mxCell id="ubXMZwC0Lajnx8_o4sSJ-30" value="" style="endArrow=classic;html=1;rounded=0;exitX=0.043;exitY=1.005;exitDx=0;exitDy=0;exitPerimeter=0;" edge="1" parent="ubXMZwC0Lajnx8_o4sSJ-1" source="ubXMZwC0Lajnx8_o4sSJ-24">
          <mxGeometry width="50" height="50" relative="1" as="geometry">
            <mxPoint x="500" y="314" as="sourcePoint" />
            <mxPoint x="561" y="440" as="targetPoint" />
          </mxGeometry>
        </mxCell>
        <mxCell id="ubXMZwC0Lajnx8_o4sSJ-31" value="num_cust_char" style="edgeLabel;html=1;align=center;verticalAlign=middle;resizable=0;points=[];" vertex="1" connectable="0" parent="ubXMZwC0Lajnx8_o4sSJ-30">
          <mxGeometry x="-0.0299" y="-1" relative="1" as="geometry">
            <mxPoint x="-23" y="-4" as="offset" />
          </mxGeometry>
        </mxCell>
        <mxCell id="ubXMZwC0Lajnx8_o4sSJ-32" value="" style="endArrow=classic;html=1;rounded=0;exitX=0.303;exitY=1.005;exitDx=0;exitDy=0;exitPerimeter=0;entryX=0.064;entryY=-0.12;entryDx=0;entryDy=0;entryPerimeter=0;" edge="1" parent="ubXMZwC0Lajnx8_o4sSJ-1" source="ubXMZwC0Lajnx8_o4sSJ-24">
          <mxGeometry width="50" height="50" relative="1" as="geometry">
            <mxPoint x="610" y="370" as="sourcePoint" />
            <mxPoint x="610" y="447" as="targetPoint" />
          </mxGeometry>
        </mxCell>
        <mxCell id="ubXMZwC0Lajnx8_o4sSJ-33" value="face" style="edgeLabel;html=1;align=center;verticalAlign=middle;resizable=0;points=[];" vertex="1" connectable="0" parent="ubXMZwC0Lajnx8_o4sSJ-32">
          <mxGeometry x="-0.0299" y="-1" relative="1" as="geometry">
            <mxPoint as="offset" />
          </mxGeometry>
        </mxCell>
        <mxCell id="ubXMZwC0Lajnx8_o4sSJ-34" value="clk_16ms" style="edgeLabel;html=1;align=center;verticalAlign=middle;resizable=0;points=[];" vertex="1" connectable="0" parent="ubXMZwC0Lajnx8_o4sSJ-32">
          <mxGeometry x="-0.0176" y="-3" relative="1" as="geometry">
            <mxPoint as="offset" />
          </mxGeometry>
        </mxCell>
        <mxCell id="ubXMZwC0Lajnx8_o4sSJ-35" style="edgeStyle=orthogonalEdgeStyle;rounded=0;orthogonalLoop=1;jettySize=auto;html=1;" edge="1" parent="ubXMZwC0Lajnx8_o4sSJ-1" source="ubXMZwC0Lajnx8_o4sSJ-39">
          <mxGeometry relative="1" as="geometry">
            <mxPoint x="770" y="390" as="targetPoint" />
          </mxGeometry>
        </mxCell>
        <mxCell id="ubXMZwC0Lajnx8_o4sSJ-36" value="rw" style="edgeLabel;html=1;align=center;verticalAlign=middle;resizable=0;points=[];" vertex="1" connectable="0" parent="ubXMZwC0Lajnx8_o4sSJ-35">
          <mxGeometry x="-0.4555" relative="1" as="geometry">
            <mxPoint as="offset" />
          </mxGeometry>
        </mxCell>
        <mxCell id="ubXMZwC0Lajnx8_o4sSJ-37" style="edgeStyle=orthogonalEdgeStyle;rounded=0;orthogonalLoop=1;jettySize=auto;html=1;exitX=0.75;exitY=0;exitDx=0;exitDy=0;entryX=0.75;entryY=1;entryDx=0;entryDy=0;" edge="1" parent="ubXMZwC0Lajnx8_o4sSJ-1" source="ubXMZwC0Lajnx8_o4sSJ-39" target="ubXMZwC0Lajnx8_o4sSJ-24">
          <mxGeometry relative="1" as="geometry">
            <Array as="points">
              <mxPoint x="683" y="430" />
              <mxPoint x="740" y="430" />
              <mxPoint x="740" y="410" />
              <mxPoint x="745" y="410" />
            </Array>
          </mxGeometry>
        </mxCell>
        <mxCell id="ubXMZwC0Lajnx8_o4sSJ-38" value="rs" style="edgeLabel;html=1;align=center;verticalAlign=middle;resizable=0;points=[];" vertex="1" connectable="0" parent="ubXMZwC0Lajnx8_o4sSJ-37">
          <mxGeometry x="0.0286" y="-3" relative="1" as="geometry">
            <mxPoint as="offset" />
          </mxGeometry>
        </mxCell>
        <mxCell id="ubXMZwC0Lajnx8_o4sSJ-39" value="&lt;span style=&quot;text-wrap: nowrap;&quot;&gt;LCD1602_CUST_CHAR&lt;/span&gt;" style="swimlane;whiteSpace=wrap;html=1;fillColor=#B3B3B3;" vertex="1" parent="ubXMZwC0Lajnx8_o4sSJ-1">
          <mxGeometry x="510" y="450" width="230" height="120" as="geometry" />
        </mxCell>
        <mxCell id="ubXMZwC0Lajnx8_o4sSJ-40" value="" style="endArrow=none;html=1;rounded=0;exitX=0;exitY=1;exitDx=0;exitDy=0;" edge="1" parent="ubXMZwC0Lajnx8_o4sSJ-39">
          <mxGeometry width="50" height="50" relative="1" as="geometry">
            <mxPoint y="100" as="sourcePoint" />
            <mxPoint x="14.5" y="90" as="targetPoint" />
          </mxGeometry>
        </mxCell>
        <mxCell id="ubXMZwC0Lajnx8_o4sSJ-41" value="" style="endArrow=none;html=1;rounded=0;exitX=0;exitY=0.75;exitDx=0;exitDy=0;" edge="1" parent="ubXMZwC0Lajnx8_o4sSJ-39">
          <mxGeometry width="50" height="50" relative="1" as="geometry">
            <mxPoint y="80" as="sourcePoint" />
            <mxPoint x="14.5" y="92" as="targetPoint" />
          </mxGeometry>
        </mxCell>
        <mxCell id="ubXMZwC0Lajnx8_o4sSJ-42" value="" style="endArrow=classic;html=1;rounded=0;exitX=-0.001;exitY=0.843;exitDx=0;exitDy=0;entryX=0;entryY=0.5;entryDx=0;entryDy=0;exitPerimeter=0;" edge="1" parent="ubXMZwC0Lajnx8_o4sSJ-1" source="ubXMZwC0Lajnx8_o4sSJ-24" target="ubXMZwC0Lajnx8_o4sSJ-39">
          <mxGeometry width="50" height="50" relative="1" as="geometry">
            <mxPoint x="510" y="290" as="sourcePoint" />
            <mxPoint x="480" y="470" as="targetPoint" />
            <Array as="points">
              <mxPoint x="480" y="330" />
              <mxPoint x="480" y="450" />
              <mxPoint x="480" y="510" />
            </Array>
          </mxGeometry>
        </mxCell>
        <mxCell id="ubXMZwC0Lajnx8_o4sSJ-43" value="start_painting" style="edgeLabel;html=1;align=center;verticalAlign=middle;resizable=0;points=[];fontSize=15;" vertex="1" connectable="0" parent="ubXMZwC0Lajnx8_o4sSJ-42">
          <mxGeometry x="-0.0182" y="-2" relative="1" as="geometry">
            <mxPoint x="12" y="-27" as="offset" />
          </mxGeometry>
        </mxCell>
        <mxCell id="ubXMZwC0Lajnx8_o4sSJ-44" value="" style="endArrow=classic;html=1;rounded=0;entryX=0.5;entryY=1;entryDx=0;entryDy=0;exitX=0.687;exitY=-0.014;exitDx=0;exitDy=0;exitPerimeter=0;" edge="1" parent="ubXMZwC0Lajnx8_o4sSJ-1" source="ubXMZwC0Lajnx8_o4sSJ-39" target="ubXMZwC0Lajnx8_o4sSJ-24">
          <mxGeometry width="50" height="50" relative="1" as="geometry">
            <mxPoint x="665" y="440" as="sourcePoint" />
            <mxPoint x="690" y="400" as="targetPoint" />
          </mxGeometry>
        </mxCell>
        <mxCell id="ubXMZwC0Lajnx8_o4sSJ-45" value="lcd_available" style="edgeLabel;html=1;align=center;verticalAlign=middle;resizable=0;points=[];" vertex="1" connectable="0" parent="ubXMZwC0Lajnx8_o4sSJ-44">
          <mxGeometry x="0.0042" y="2" relative="1" as="geometry">
            <mxPoint x="12" as="offset" />
          </mxGeometry>
        </mxCell>
        <mxCell id="ubXMZwC0Lajnx8_o4sSJ-46" value="" style="endArrow=none;dashed=1;html=1;dashPattern=1 3;strokeWidth=2;rounded=0;" edge="1" parent="ubXMZwC0Lajnx8_o4sSJ-1">
          <mxGeometry width="50" height="50" relative="1" as="geometry">
            <mxPoint x="20" y="566" as="sourcePoint" />
            <mxPoint x="510" y="566" as="targetPoint" />
          </mxGeometry>
        </mxCell>
        <mxCell id="ubXMZwC0Lajnx8_o4sSJ-47" value="" style="endArrow=none;dashed=1;html=1;dashPattern=1 3;strokeWidth=2;rounded=0;" edge="1" parent="ubXMZwC0Lajnx8_o4sSJ-1">
          <mxGeometry width="50" height="50" relative="1" as="geometry">
            <mxPoint x="20" y="100" as="sourcePoint" />
            <mxPoint x="20" y="30" as="targetPoint" />
          </mxGeometry>
        </mxCell>
        <mxCell id="ubXMZwC0Lajnx8_o4sSJ-48" value="" style="endArrow=none;dashed=1;html=1;dashPattern=1 3;strokeWidth=2;rounded=0;entryX=-0.014;entryY=0.161;entryDx=0;entryDy=0;entryPerimeter=0;" edge="1" parent="ubXMZwC0Lajnx8_o4sSJ-1" target="ubXMZwC0Lajnx8_o4sSJ-24">
          <mxGeometry width="50" height="50" relative="1" as="geometry">
            <mxPoint x="20" y="40" as="sourcePoint" />
            <mxPoint x="70" as="targetPoint" />
            <Array as="points">
              <mxPoint x="320" y="40" />
              <mxPoint x="490" y="40" />
            </Array>
          </mxGeometry>
        </mxCell>
        <mxCell id="ubXMZwC0Lajnx8_o4sSJ-49" value="" style="endArrow=none;html=1;rounded=0;strokeColor=#FF3333;entryX=-0.004;entryY=0.376;entryDx=0;entryDy=0;entryPerimeter=0;" edge="1" parent="ubXMZwC0Lajnx8_o4sSJ-1" target="ubXMZwC0Lajnx8_o4sSJ-24">
          <mxGeometry width="50" height="50" relative="1" as="geometry">
            <mxPoint x="460" y="187" as="sourcePoint" />
            <mxPoint x="533" y="170" as="targetPoint" />
          </mxGeometry>
        </mxCell>
        <mxCell id="ubXMZwC0Lajnx8_o4sSJ-50" value="" style="endArrow=none;html=1;rounded=0;strokeColor=#FFD966;entryX=-0.014;entryY=0.695;entryDx=0;entryDy=0;entryPerimeter=0;" edge="1" parent="ubXMZwC0Lajnx8_o4sSJ-1" target="ubXMZwC0Lajnx8_o4sSJ-24">
          <mxGeometry width="50" height="50" relative="1" as="geometry">
            <mxPoint x="460" y="285" as="sourcePoint" />
            <mxPoint x="520" y="285" as="targetPoint" />
          </mxGeometry>
        </mxCell>
        <mxCell id="ubXMZwC0Lajnx8_o4sSJ-51" value="" style="endArrow=classic;html=1;rounded=0;exitX=1;exitY=0.5;exitDx=0;exitDy=0;entryX=-0.001;entryY=0.611;entryDx=0;entryDy=0;entryPerimeter=0;" edge="1" parent="ubXMZwC0Lajnx8_o4sSJ-1" source="ubXMZwC0Lajnx8_o4sSJ-9" target="ubXMZwC0Lajnx8_o4sSJ-24">
          <mxGeometry width="50" height="50" relative="1" as="geometry">
            <mxPoint x="520" y="210" as="sourcePoint" />
            <mxPoint x="530" y="260" as="targetPoint" />
          </mxGeometry>
        </mxCell>
        <mxCell id="ubXMZwC0Lajnx8_o4sSJ-52" value="new_change" style="edgeLabel;html=1;align=center;verticalAlign=middle;resizable=0;points=[];fontSize=15;" vertex="1" connectable="0" parent="ubXMZwC0Lajnx8_o4sSJ-51">
          <mxGeometry x="0.3195" y="2" relative="1" as="geometry">
            <mxPoint x="-26" as="offset" />
          </mxGeometry>
        </mxCell>
        <mxCell id="ubXMZwC0Lajnx8_o4sSJ-53" value="" style="endArrow=none;html=1;rounded=0;strokeColor=#00CC00;" edge="1" parent="ubXMZwC0Lajnx8_o4sSJ-1">
          <mxGeometry width="50" height="50" relative="1" as="geometry">
            <mxPoint x="470" y="310" as="sourcePoint" />
            <mxPoint x="540" y="310" as="targetPoint" />
          </mxGeometry>
        </mxCell>
        <mxCell id="ubXMZwC0Lajnx8_o4sSJ-54" value="" style="endArrow=classic;html=1;rounded=0;" edge="1" parent="1">
          <mxGeometry width="50" height="50" relative="1" as="geometry">
            <mxPoint x="100" y="-1400" as="sourcePoint" />
            <mxPoint x="220" y="-1400" as="targetPoint" />
          </mxGeometry>
        </mxCell>
        <mxCell id="ubXMZwC0Lajnx8_o4sSJ-55" value="" style="endArrow=classic;html=1;rounded=0;" edge="1" parent="1">
          <mxGeometry width="50" height="50" relative="1" as="geometry">
            <mxPoint x="100" y="-1360" as="sourcePoint" />
            <mxPoint x="220" y="-1360" as="targetPoint" />
          </mxGeometry>
        </mxCell>
        <mxCell id="ubXMZwC0Lajnx8_o4sSJ-56" value="" style="endArrow=classic;html=1;rounded=0;strokeColor=#FF3333;" edge="1" parent="1">
          <mxGeometry width="50" height="50" relative="1" as="geometry">
            <mxPoint x="100" y="-1280" as="sourcePoint" />
            <mxPoint x="220" y="-1280" as="targetPoint" />
          </mxGeometry>
        </mxCell>
        <mxCell id="ubXMZwC0Lajnx8_o4sSJ-57" value="" style="endArrow=classic;html=1;rounded=0;fillColor=#B5739D;strokeColor=#0000FF;" edge="1" parent="1">
          <mxGeometry width="50" height="50" relative="1" as="geometry">
            <mxPoint x="100" y="-1190" as="sourcePoint" />
            <mxPoint x="220" y="-1190" as="targetPoint" />
          </mxGeometry>
        </mxCell>
        <mxCell id="ubXMZwC0Lajnx8_o4sSJ-58" value="" style="endArrow=classic;html=1;rounded=0;strokeColor=#FFD966;" edge="1" parent="1">
          <mxGeometry width="50" height="50" relative="1" as="geometry">
            <mxPoint x="100" y="-1080" as="sourcePoint" />
            <mxPoint x="220" y="-1080" as="targetPoint" />
          </mxGeometry>
        </mxCell>
        <mxCell id="ubXMZwC0Lajnx8_o4sSJ-59" value="" style="endArrow=classic;html=1;rounded=0;strokeColor=#00CC00;" edge="1" parent="1">
          <mxGeometry width="50" height="50" relative="1" as="geometry">
            <mxPoint x="100" y="-970" as="sourcePoint" />
            <mxPoint x="220" y="-970" as="targetPoint" />
          </mxGeometry>
        </mxCell>
        <mxCell id="ubXMZwC0Lajnx8_o4sSJ-60" value="reset" style="text;html=1;align=center;verticalAlign=middle;whiteSpace=wrap;rounded=0;fontSize=20;" vertex="1" parent="1">
          <mxGeometry x="130" y="-1390" width="60" height="30" as="geometry" />
        </mxCell>
        <mxCell id="ubXMZwC0Lajnx8_o4sSJ-61" value="clk" style="text;html=1;align=center;verticalAlign=middle;whiteSpace=wrap;rounded=0;fontSize=20;" vertex="1" parent="1">
          <mxGeometry x="130" y="-1430" width="60" height="30" as="geometry" />
        </mxCell>
        <mxCell id="ubXMZwC0Lajnx8_o4sSJ-62" value="face [3:0]" style="text;html=1;align=center;verticalAlign=middle;whiteSpace=wrap;rounded=0;fontSize=20;strokeColor=none;fillColor=none;" vertex="1" parent="1">
          <mxGeometry x="90" y="-1320" width="100" height="30" as="geometry" />
        </mxCell>
        <mxCell id="ubXMZwC0Lajnx8_o4sSJ-63" value="food_value [2:0]" style="text;html=1;align=center;verticalAlign=middle;whiteSpace=wrap;rounded=0;fontSize=20;strokeColor=none;fillColor=none;" vertex="1" parent="1">
          <mxGeometry x="70" y="-1230" width="150" height="30" as="geometry" />
        </mxCell>
        <mxCell id="ubXMZwC0Lajnx8_o4sSJ-64" value="energy_value [2:0]" style="text;html=1;align=center;verticalAlign=middle;whiteSpace=wrap;rounded=0;fontSize=20;strokeColor=none;fillColor=none;" vertex="1" parent="1">
          <mxGeometry x="50" y="-1120" width="175" height="30" as="geometry" />
        </mxCell>
        <mxCell id="ubXMZwC0Lajnx8_o4sSJ-65" value="joy_value [2:0]" style="text;html=1;align=center;verticalAlign=middle;whiteSpace=wrap;rounded=0;fontSize=20;strokeColor=none;fillColor=none;" vertex="1" parent="1">
          <mxGeometry x="70" y="-1010" width="135" height="30" as="geometry" />
        </mxCell>
        <mxCell id="ubXMZwC0Lajnx8_o4sSJ-66" value="" style="endArrow=none;dashed=1;html=1;dashPattern=1 3;strokeWidth=2;rounded=0;" edge="1" parent="1">
          <mxGeometry width="50" height="50" relative="1" as="geometry">
            <mxPoint x="230" y="-1360" as="sourcePoint" />
            <mxPoint x="310" y="-1360" as="targetPoint" />
          </mxGeometry>
        </mxCell>
        <mxCell id="ubXMZwC0Lajnx8_o4sSJ-67" value="" style="endArrow=none;dashed=1;html=1;dashPattern=1 3;strokeWidth=2;rounded=0;" edge="1" parent="1">
          <mxGeometry width="50" height="50" relative="1" as="geometry">
            <mxPoint x="310" y="-1330" as="sourcePoint" />
            <mxPoint x="340" y="-1330" as="targetPoint" />
          </mxGeometry>
        </mxCell>
        <mxCell id="ubXMZwC0Lajnx8_o4sSJ-68" value="" style="endArrow=none;html=1;rounded=0;strokeColor=#FF3333;" edge="1" parent="1">
          <mxGeometry width="50" height="50" relative="1" as="geometry">
            <mxPoint x="230" y="-1280" as="sourcePoint" />
            <mxPoint x="340" y="-1310" as="targetPoint" />
          </mxGeometry>
        </mxCell>
        <mxCell id="ubXMZwC0Lajnx8_o4sSJ-69" value="" style="endArrow=none;html=1;rounded=0;exitX=0;exitY=1;exitDx=0;exitDy=0;" edge="1" parent="1">
          <mxGeometry width="50" height="50" relative="1" as="geometry">
            <mxPoint x="342" y="-1171" as="sourcePoint" />
            <mxPoint x="356.5" y="-1181" as="targetPoint" />
          </mxGeometry>
        </mxCell>
        <mxCell id="ubXMZwC0Lajnx8_o4sSJ-70" value="" style="endArrow=none;html=1;rounded=0;exitX=0;exitY=0.75;exitDx=0;exitDy=0;" edge="1" parent="1">
          <mxGeometry width="50" height="50" relative="1" as="geometry">
            <mxPoint x="342" y="-1193" as="sourcePoint" />
            <mxPoint x="356.5" y="-1181" as="targetPoint" />
          </mxGeometry>
        </mxCell>
        <mxCell id="ubXMZwC0Lajnx8_o4sSJ-71" value="" style="endArrow=none;html=1;rounded=0;exitX=0;exitY=1;exitDx=0;exitDy=0;" edge="1" parent="1">
          <mxGeometry width="50" height="50" relative="1" as="geometry">
            <mxPoint x="341" y="-955" as="sourcePoint" />
            <mxPoint x="355.5" y="-965" as="targetPoint" />
          </mxGeometry>
        </mxCell>
        <mxCell id="ubXMZwC0Lajnx8_o4sSJ-72" value="" style="endArrow=none;html=1;rounded=0;exitX=0;exitY=0.75;exitDx=0;exitDy=0;" edge="1" parent="1">
          <mxGeometry width="50" height="50" relative="1" as="geometry">
            <mxPoint x="341" y="-977" as="sourcePoint" />
            <mxPoint x="355.5" y="-965" as="targetPoint" />
          </mxGeometry>
        </mxCell>
        <mxCell id="ubXMZwC0Lajnx8_o4sSJ-73" value="" style="endArrow=none;html=1;rounded=0;entryX=0;entryY=0.5;entryDx=0;entryDy=0;strokeColor=#0000FF;" edge="1" parent="1" target="ubXMZwC0Lajnx8_o4sSJ-10">
          <mxGeometry width="50" height="50" relative="1" as="geometry">
            <mxPoint x="230" y="-1190" as="sourcePoint" />
            <mxPoint x="790" y="-1150" as="targetPoint" />
          </mxGeometry>
        </mxCell>
        <mxCell id="ubXMZwC0Lajnx8_o4sSJ-74" value="" style="endArrow=none;html=1;rounded=0;entryX=0;entryY=0.5;entryDx=0;entryDy=0;strokeColor=#FFD966;" edge="1" parent="1" target="ubXMZwC0Lajnx8_o4sSJ-11">
          <mxGeometry width="50" height="50" relative="1" as="geometry">
            <mxPoint x="230" y="-1100" as="sourcePoint" />
            <mxPoint x="790" y="-1150" as="targetPoint" />
          </mxGeometry>
        </mxCell>
        <mxCell id="ubXMZwC0Lajnx8_o4sSJ-75" value="" style="endArrow=none;html=1;rounded=0;entryX=0;entryY=0.5;entryDx=0;entryDy=0;strokeColor=#00CC00;" edge="1" parent="1" target="ubXMZwC0Lajnx8_o4sSJ-14">
          <mxGeometry width="50" height="50" relative="1" as="geometry">
            <mxPoint x="220" y="-970" as="sourcePoint" />
            <mxPoint x="420" y="-1150" as="targetPoint" />
          </mxGeometry>
        </mxCell>
        <mxCell id="ubXMZwC0Lajnx8_o4sSJ-76" value="" style="endArrow=classic;html=1;rounded=0;" edge="1" parent="1">
          <mxGeometry width="50" height="50" relative="1" as="geometry">
            <mxPoint x="1090" y="-1150" as="sourcePoint" />
            <mxPoint x="1180" y="-1150" as="targetPoint" />
          </mxGeometry>
        </mxCell>
        <mxCell id="ubXMZwC0Lajnx8_o4sSJ-77" value="rs" style="edgeLabel;html=1;align=center;verticalAlign=middle;resizable=0;points=[];fontSize=20;" vertex="1" connectable="0" parent="ubXMZwC0Lajnx8_o4sSJ-76">
          <mxGeometry x="-0.2183" y="1" relative="1" as="geometry">
            <mxPoint as="offset" />
          </mxGeometry>
        </mxCell>
        <mxCell id="ubXMZwC0Lajnx8_o4sSJ-78" value="" style="endArrow=classic;html=1;rounded=0;" edge="1" parent="1">
          <mxGeometry width="50" height="50" relative="1" as="geometry">
            <mxPoint x="1090" y="-1200" as="sourcePoint" />
            <mxPoint x="1180" y="-1200" as="targetPoint" />
          </mxGeometry>
        </mxCell>
        <mxCell id="ubXMZwC0Lajnx8_o4sSJ-79" value="rw" style="edgeLabel;html=1;align=center;verticalAlign=middle;resizable=0;points=[];fontSize=20;" vertex="1" connectable="0" parent="ubXMZwC0Lajnx8_o4sSJ-78">
          <mxGeometry x="-0.2706" y="-1" relative="1" as="geometry">
            <mxPoint x="17" as="offset" />
          </mxGeometry>
        </mxCell>
        <mxCell id="ubXMZwC0Lajnx8_o4sSJ-80" value="" style="endArrow=classic;html=1;rounded=0;" edge="1" parent="1">
          <mxGeometry width="50" height="50" relative="1" as="geometry">
            <mxPoint x="1090" y="-1105.5900000000001" as="sourcePoint" />
            <mxPoint x="1200" y="-1105.5900000000001" as="targetPoint" />
          </mxGeometry>
        </mxCell>
        <mxCell id="ubXMZwC0Lajnx8_o4sSJ-81" value="data[7:0]" style="edgeLabel;html=1;align=center;verticalAlign=middle;resizable=0;points=[];fontSize=20;" vertex="1" connectable="0" parent="ubXMZwC0Lajnx8_o4sSJ-80">
          <mxGeometry x="-0.166" y="4" relative="1" as="geometry">
            <mxPoint x="4" y="5" as="offset" />
          </mxGeometry>
        </mxCell>
        <mxCell id="ubXMZwC0Lajnx8_o4sSJ-82" value="" style="endArrow=classic;html=1;rounded=0;" edge="1" parent="1">
          <mxGeometry width="50" height="50" relative="1" as="geometry">
            <mxPoint x="1100" y="-1290" as="sourcePoint" />
            <mxPoint x="1190" y="-1290" as="targetPoint" />
          </mxGeometry>
        </mxCell>
        <mxCell id="ubXMZwC0Lajnx8_o4sSJ-83" value="enable" style="edgeLabel;html=1;align=center;verticalAlign=middle;resizable=0;points=[];fontStyle=1;fontSize=16;" vertex="1" connectable="0" parent="ubXMZwC0Lajnx8_o4sSJ-82">
          <mxGeometry x="-0.0366" relative="1" as="geometry">
            <mxPoint x="-4" y="-20" as="offset" />
          </mxGeometry>
        </mxCell>
        <mxCell id="ubXMZwC0Lajnx8_o4sSJ-84" value="" style="endArrow=classic;html=1;rounded=0;" edge="1" parent="1">
          <mxGeometry width="50" height="50" relative="1" as="geometry">
            <mxPoint x="970" y="-910" as="sourcePoint" />
            <mxPoint x="1030" y="-1077" as="targetPoint" />
            <Array as="points">
              <mxPoint x="1030" y="-910" />
            </Array>
          </mxGeometry>
        </mxCell>
        <mxCell id="ubXMZwC0Lajnx8_o4sSJ-85" value="data[7:0]" style="edgeLabel;html=1;align=center;verticalAlign=middle;resizable=0;points=[];" vertex="1" connectable="0" parent="ubXMZwC0Lajnx8_o4sSJ-84">
          <mxGeometry x="-0.7794" y="1" relative="1" as="geometry">
            <mxPoint x="15" y="1" as="offset" />
          </mxGeometry>
        </mxCell>
        <mxCell id="ubXMZwC0Lajnx8_o4sSJ-86" value="" style="endArrow=none;dashed=1;html=1;dashPattern=1 3;strokeWidth=2;rounded=0;" edge="1" parent="1">
          <mxGeometry width="50" height="50" relative="1" as="geometry">
            <mxPoint x="250" y="-900" as="sourcePoint" />
            <mxPoint x="250" y="-1350" as="targetPoint" />
          </mxGeometry>
        </mxCell>
        <mxCell id="ubXMZwC0Lajnx8_o4sSJ-87" value="" style="endArrow=none;dashed=1;html=1;dashPattern=1 3;strokeWidth=2;rounded=0;" edge="1" parent="1">
          <mxGeometry width="50" height="50" relative="1" as="geometry">
            <mxPoint x="312" y="-1234" as="sourcePoint" />
            <mxPoint x="342" y="-1234" as="targetPoint" />
          </mxGeometry>
        </mxCell>
        <mxCell id="ubXMZwC0Lajnx8_o4sSJ-88" value="" style="endArrow=none;dashed=1;html=1;dashPattern=1 3;strokeWidth=2;rounded=0;" edge="1" parent="1">
          <mxGeometry width="50" height="50" relative="1" as="geometry">
            <mxPoint x="311" y="-1119" as="sourcePoint" />
            <mxPoint x="341" y="-1119" as="targetPoint" />
          </mxGeometry>
        </mxCell>
        <mxCell id="ubXMZwC0Lajnx8_o4sSJ-89" value="" style="endArrow=none;dashed=1;html=1;dashPattern=1 3;strokeWidth=2;rounded=0;" edge="1" parent="1">
          <mxGeometry width="50" height="50" relative="1" as="geometry">
            <mxPoint x="320" y="-1009" as="sourcePoint" />
            <mxPoint x="350" y="-1009" as="targetPoint" />
          </mxGeometry>
        </mxCell>
        <mxCell id="ubXMZwC0Lajnx8_o4sSJ-90" value="" style="endArrow=none;html=1;rounded=0;strokeColor=#0000FF;exitX=-0.001;exitY=0.473;exitDx=0;exitDy=0;exitPerimeter=0;" edge="1" parent="1" source="ubXMZwC0Lajnx8_o4sSJ-24">
          <mxGeometry width="50" height="50" relative="1" as="geometry">
            <mxPoint x="240" y="-1180" as="sourcePoint" />
            <mxPoint x="690" y="-1243" as="targetPoint" />
            <Array as="points" />
          </mxGeometry>
        </mxCell>
      </root>
    </mxGraphModel>
  </diagram>
  <diagram id="t74Cpa2sfenBl1My-7Ce" name="fsm_controller_lcd">
    <mxGraphModel dx="2100" dy="1242" grid="1" gridSize="10" guides="1" tooltips="1" connect="1" arrows="1" fold="1" page="1" pageScale="1" pageWidth="583" pageHeight="827" math="0" shadow="0">
      <root>
        <mxCell id="0" />
        <mxCell id="1" parent="0" />
        <mxCell id="cwp2CjNkhNbKG_1rIIVG-1" style="edgeStyle=orthogonalEdgeStyle;rounded=0;orthogonalLoop=1;jettySize=auto;html=1;entryX=0;entryY=0.5;entryDx=0;entryDy=0;fillColor=#6a00ff;strokeColor=#3700CC;" edge="1" parent="1" source="J_PNSluLdZF3O0eb-7Dz-1" target="J_PNSluLdZF3O0eb-7Dz-2">
          <mxGeometry relative="1" as="geometry" />
        </mxCell>
        <mxCell id="J_PNSluLdZF3O0eb-7Dz-1" value="&lt;b&gt;&lt;font style=&quot;font-size: 20px;&quot;&gt;IDLE&lt;/font&gt;&lt;/b&gt;" style="ellipse;whiteSpace=wrap;html=1;fillColor=#eeeeee;strokeColor=#36393d;" parent="1" vertex="1">
          <mxGeometry x="110" y="70" width="120" height="80" as="geometry" />
        </mxCell>
        <mxCell id="J_PNSluLdZF3O0eb-7Dz-10" value="" style="edgeStyle=orthogonalEdgeStyle;rounded=0;orthogonalLoop=1;jettySize=auto;html=1;fillColor=#0050ef;strokeColor=#001DBC;" parent="1" source="J_PNSluLdZF3O0eb-7Dz-2" target="J_PNSluLdZF3O0eb-7Dz-3" edge="1">
          <mxGeometry relative="1" as="geometry" />
        </mxCell>
        <mxCell id="J_PNSluLdZF3O0eb-7Dz-2" value="&lt;span style=&quot;font-size: 20px;&quot;&gt;&lt;b&gt;INIT_CONFIG&lt;/b&gt;&lt;/span&gt;" style="ellipse;whiteSpace=wrap;html=1;fillColor=#eeeeee;strokeColor=#36393d;" parent="1" vertex="1">
          <mxGeometry x="295" y="70" width="170" height="80" as="geometry" />
        </mxCell>
        <mxCell id="J_PNSluLdZF3O0eb-7Dz-11" style="edgeStyle=orthogonalEdgeStyle;rounded=0;orthogonalLoop=1;jettySize=auto;html=1;fillColor=#6a00ff;strokeColor=#3700CC;" parent="1" source="J_PNSluLdZF3O0eb-7Dz-3" target="J_PNSluLdZF3O0eb-7Dz-4" edge="1">
          <mxGeometry relative="1" as="geometry" />
        </mxCell>
        <mxCell id="J_PNSluLdZF3O0eb-7Dz-3" value="&lt;span style=&quot;font-size: 20px;&quot;&gt;&lt;b&gt;INITIAL_PAINT_CARA&lt;/b&gt;&lt;/span&gt;" style="ellipse;whiteSpace=wrap;html=1;fillColor=#eeeeee;strokeColor=#36393d;" parent="1" vertex="1">
          <mxGeometry x="265" y="240" width="230" height="80" as="geometry" />
        </mxCell>
        <mxCell id="J_PNSluLdZF3O0eb-7Dz-12" style="edgeStyle=orthogonalEdgeStyle;rounded=0;orthogonalLoop=1;jettySize=auto;html=1;entryX=0.5;entryY=0;entryDx=0;entryDy=0;fillColor=#6a00ff;strokeColor=#3700CC;" parent="1" source="J_PNSluLdZF3O0eb-7Dz-4" target="J_PNSluLdZF3O0eb-7Dz-5" edge="1">
          <mxGeometry relative="1" as="geometry" />
        </mxCell>
        <mxCell id="J_PNSluLdZF3O0eb-7Dz-4" value="&lt;b style=&quot;font-size: 20px;&quot;&gt;INITIAL_PAINT_VALUES&lt;/b&gt;" style="ellipse;whiteSpace=wrap;html=1;fillColor=#eeeeee;strokeColor=#36393d;" parent="1" vertex="1">
          <mxGeometry x="257.5" y="373.5" width="245" height="80" as="geometry" />
        </mxCell>
        <mxCell id="J_PNSluLdZF3O0eb-7Dz-13" style="edgeStyle=orthogonalEdgeStyle;rounded=0;orthogonalLoop=1;jettySize=auto;html=1;fillColor=#6a00ff;strokeColor=#3700CC;" parent="1" source="J_PNSluLdZF3O0eb-7Dz-5" target="J_PNSluLdZF3O0eb-7Dz-6" edge="1">
          <mxGeometry relative="1" as="geometry" />
        </mxCell>
        <mxCell id="J_PNSluLdZF3O0eb-7Dz-5" value="&lt;span style=&quot;font-size: 20px;&quot;&gt;&lt;b&gt;INITIAL_PAINT_TEXT&lt;/b&gt;&lt;/span&gt;" style="ellipse;whiteSpace=wrap;html=1;fillColor=#eeeeee;strokeColor=#36393d;" parent="1" vertex="1">
          <mxGeometry x="250" y="510" width="260" height="80" as="geometry" />
        </mxCell>
        <mxCell id="J_PNSluLdZF3O0eb-7Dz-6" value="&lt;span style=&quot;font-size: 20px;&quot;&gt;&lt;b&gt;CHECK_UPDATES&lt;/b&gt;&lt;/span&gt;&lt;span style=&quot;color: rgba(0, 0, 0, 0); font-family: monospace; font-size: 0px; text-align: start; text-wrap: nowrap;&quot;&gt;%3CmxGraphModel%3E%3Croot%3E%3CmxCell%20id%3D%220%22%2F%3E%3CmxCell%20id%3D%221%22%20parent%3D%220%22%2F%3E%3CmxCell%20id%3D%222%22%20value%3D%22%26lt%3Bspan%20style%3D%26quot%3Bfont-size%3A%2020px%3B%26quot%3B%26gt%3B%26lt%3Bb%26gt%3BINITIAL_PAINT_VALUES%26lt%3B%2Fb%26gt%3B%26lt%3B%2Fspan%26gt%3B%22%20style%3D%22ellipse%3BwhiteSpace%3Dwrap%3Bhtml%3D1%3B%22%20vertex%3D%221%22%20parent%3D%221%22%3E%3CmxGeometry%20x%3D%22180%22%20y%3D%22570%22%20width%3D%22260%22%20height%3D%2280%22%20as%3D%22geometry%22%2F%3E%3C%2FmxCell%3E%3C%2Froot%3E%3C%2FmxGraphModel%3E&lt;/span&gt;" style="ellipse;whiteSpace=wrap;html=1;fillColor=#eeeeee;strokeColor=#36393d;" parent="1" vertex="1">
          <mxGeometry x="250" y="650" width="260" height="80" as="geometry" />
        </mxCell>
        <mxCell id="J_PNSluLdZF3O0eb-7Dz-18" style="edgeStyle=orthogonalEdgeStyle;rounded=0;orthogonalLoop=1;jettySize=auto;html=1;curved=1;entryX=0.5;entryY=1;entryDx=0;entryDy=0;exitX=0.5;exitY=1;exitDx=0;exitDy=0;fillColor=#6a00ff;strokeColor=#3700CC;" parent="1" source="J_PNSluLdZF3O0eb-7Dz-7" target="J_PNSluLdZF3O0eb-7Dz-8" edge="1">
          <mxGeometry relative="1" as="geometry">
            <mxPoint x="330" y="1070" as="targetPoint" />
            <Array as="points">
              <mxPoint x="210" y="880" />
              <mxPoint x="530" y="880" />
            </Array>
          </mxGeometry>
        </mxCell>
        <mxCell id="J_PNSluLdZF3O0eb-7Dz-19" style="edgeStyle=orthogonalEdgeStyle;rounded=0;orthogonalLoop=1;jettySize=auto;html=1;entryX=0;entryY=0.5;entryDx=0;entryDy=0;curved=1;fillColor=#6a00ff;strokeColor=#3700CC;" parent="1" source="J_PNSluLdZF3O0eb-7Dz-7" target="J_PNSluLdZF3O0eb-7Dz-6" edge="1">
          <mxGeometry relative="1" as="geometry" />
        </mxCell>
        <mxCell id="J_PNSluLdZF3O0eb-7Dz-7" value="&lt;span style=&quot;font-size: 20px;&quot;&gt;&lt;b&gt;PAINT_VALUES&lt;/b&gt;&lt;/span&gt;" style="ellipse;whiteSpace=wrap;html=1;fillColor=#eeeeee;strokeColor=#36393d;" parent="1" vertex="1">
          <mxGeometry x="80" y="770" width="260" height="80" as="geometry" />
        </mxCell>
        <mxCell id="J_PNSluLdZF3O0eb-7Dz-16" style="edgeStyle=orthogonalEdgeStyle;rounded=0;orthogonalLoop=1;jettySize=auto;html=1;entryX=1;entryY=0.5;entryDx=0;entryDy=0;curved=1;exitX=0.538;exitY=0;exitDx=0;exitDy=0;exitPerimeter=0;fillColor=#6a00ff;strokeColor=#3700CC;" parent="1" source="J_PNSluLdZF3O0eb-7Dz-8" target="J_PNSluLdZF3O0eb-7Dz-6" edge="1">
          <mxGeometry relative="1" as="geometry" />
        </mxCell>
        <mxCell id="J_PNSluLdZF3O0eb-7Dz-8" value="&lt;span style=&quot;font-size: 20px;&quot;&gt;&lt;b&gt;PAINT_CARA&lt;/b&gt;&lt;/span&gt;" style="ellipse;whiteSpace=wrap;html=1;fillColor=#eeeeee;strokeColor=#36393d;" parent="1" vertex="1">
          <mxGeometry x="400" y="770" width="260" height="80" as="geometry" />
        </mxCell>
        <mxCell id="J_PNSluLdZF3O0eb-7Dz-20" value="init_config_executed" style="text;html=1;align=center;verticalAlign=middle;whiteSpace=wrap;rounded=0;fontSize=17;labelBackgroundColor=default;fontColor=#6666FF;" parent="1" vertex="1">
          <mxGeometry x="440" y="180" width="60" height="30" as="geometry" />
        </mxCell>
        <mxCell id="J_PNSluLdZF3O0eb-7Dz-21" value="initial_paint_cara_done" style="text;html=1;align=center;verticalAlign=middle;whiteSpace=wrap;rounded=0;fontSize=17;labelBackgroundColor=default;fontColor=#6666FF;" parent="1" vertex="1">
          <mxGeometry x="450" y="330" width="60" height="30" as="geometry" />
        </mxCell>
        <mxCell id="J_PNSluLdZF3O0eb-7Dz-22" value="initial_paint_text_done" style="text;html=1;align=center;verticalAlign=middle;whiteSpace=wrap;rounded=0;fontSize=17;labelBackgroundColor=default;fontColor=#6666FF;" parent="1" vertex="1">
          <mxGeometry x="465" y="610" width="60" height="30" as="geometry" />
        </mxCell>
        <mxCell id="J_PNSluLdZF3O0eb-7Dz-23" value="initial_paint_values_done" style="text;html=1;align=center;verticalAlign=middle;whiteSpace=wrap;rounded=0;fontSize=17;labelBackgroundColor=default;fontColor=#6666FF;" parent="1" vertex="1">
          <mxGeometry x="465" y="470" width="60" height="30" as="geometry" />
        </mxCell>
        <mxCell id="J_PNSluLdZF3O0eb-7Dz-24" value="new_update" style="text;html=1;align=center;verticalAlign=middle;whiteSpace=wrap;rounded=0;fontSize=17;labelBackgroundColor=default;fontColor=#6666FF;" parent="1" vertex="1">
          <mxGeometry x="130" y="710" width="60" height="30" as="geometry" />
        </mxCell>
        <mxCell id="J_PNSluLdZF3O0eb-7Dz-25" value="values_executed" style="text;html=1;align=center;verticalAlign=middle;whiteSpace=wrap;rounded=0;fontSize=17;labelBackgroundColor=default;fontColor=#6666FF;" parent="1" vertex="1">
          <mxGeometry x="350" y="880" width="60" height="30" as="geometry" />
        </mxCell>
        <mxCell id="J_PNSluLdZF3O0eb-7Dz-26" value="carita_executed" style="text;html=1;align=center;verticalAlign=middle;whiteSpace=wrap;rounded=0;fontSize=17;labelBackgroundColor=default;fontColor=#6666FF;" parent="1" vertex="1">
          <mxGeometry x="570" y="710" width="60" height="30" as="geometry" />
        </mxCell>
        <mxCell id="NGf4HnUh0L_7O4jUX7QB-1" value="" style="endArrow=classic;html=1;rounded=0;entryX=0;entryY=0.5;entryDx=0;entryDy=0;fillColor=#6a00ff;strokeColor=#3700CC;" parent="1" target="J_PNSluLdZF3O0eb-7Dz-1" edge="1">
          <mxGeometry width="50" height="50" relative="1" as="geometry">
            <mxPoint x="20" y="110" as="sourcePoint" />
            <mxPoint x="460" y="210" as="targetPoint" />
          </mxGeometry>
        </mxCell>
        <mxCell id="NGf4HnUh0L_7O4jUX7QB-2" value="reset" style="edgeLabel;html=1;align=center;verticalAlign=middle;resizable=0;points=[];fontSize=17;fontColor=#6666FF;" parent="NGf4HnUh0L_7O4jUX7QB-1" vertex="1" connectable="0">
          <mxGeometry x="-0.35" y="1" relative="1" as="geometry">
            <mxPoint x="10" y="-19" as="offset" />
          </mxGeometry>
        </mxCell>
      </root>
    </mxGraphModel>
  </diagram>
  <diagram id="YUeFs16dHJnHbF_eX_UD" name="cajaNegra_simple">
    <mxGraphModel dx="1050" dy="621" grid="1" gridSize="10" guides="1" tooltips="1" connect="1" arrows="1" fold="1" page="1" pageScale="1" pageWidth="583" pageHeight="827" math="0" shadow="0">
      <root>
        <mxCell id="0" />
        <mxCell id="1" parent="0" />
        <mxCell id="cCr_7IEWoHh2p9rlhB90-1" value="LCD1602_CONTROLLER" style="swimlane;whiteSpace=wrap;html=1;fillColor=#B3B3B3;" vertex="1" parent="1">
          <mxGeometry x="292" y="110" width="380" height="310" as="geometry" />
        </mxCell>
        <mxCell id="Ae6ilyuZiUHAzL7-MvZ4-1" value="" style="endArrow=classic;html=1;rounded=0;" edge="1" parent="1">
          <mxGeometry width="50" height="50" relative="1" as="geometry">
            <mxPoint x="160" y="150" as="sourcePoint" />
            <mxPoint x="280" y="150" as="targetPoint" />
          </mxGeometry>
        </mxCell>
        <mxCell id="Ae6ilyuZiUHAzL7-MvZ4-2" value="" style="endArrow=classic;html=1;rounded=0;" edge="1" parent="1">
          <mxGeometry width="50" height="50" relative="1" as="geometry">
            <mxPoint x="160" y="190" as="sourcePoint" />
            <mxPoint x="280" y="190" as="targetPoint" />
          </mxGeometry>
        </mxCell>
        <mxCell id="Ae6ilyuZiUHAzL7-MvZ4-3" value="" style="endArrow=classic;html=1;rounded=0;strokeColor=#FF3333;" edge="1" parent="1">
          <mxGeometry width="50" height="50" relative="1" as="geometry">
            <mxPoint x="160" y="240" as="sourcePoint" />
            <mxPoint x="280" y="240" as="targetPoint" />
          </mxGeometry>
        </mxCell>
        <mxCell id="Ae6ilyuZiUHAzL7-MvZ4-4" value="" style="endArrow=classic;html=1;rounded=0;fillColor=#B5739D;strokeColor=#0000FF;" edge="1" parent="1">
          <mxGeometry width="50" height="50" relative="1" as="geometry">
            <mxPoint x="160" y="290" as="sourcePoint" />
            <mxPoint x="280" y="290" as="targetPoint" />
          </mxGeometry>
        </mxCell>
        <mxCell id="Ae6ilyuZiUHAzL7-MvZ4-5" value="" style="endArrow=classic;html=1;rounded=0;strokeColor=#FFD966;" edge="1" parent="1">
          <mxGeometry width="50" height="50" relative="1" as="geometry">
            <mxPoint x="150" y="330" as="sourcePoint" />
            <mxPoint x="270" y="330" as="targetPoint" />
          </mxGeometry>
        </mxCell>
        <mxCell id="Ae6ilyuZiUHAzL7-MvZ4-6" value="" style="endArrow=classic;html=1;rounded=0;strokeColor=#00CC00;" edge="1" parent="1">
          <mxGeometry width="50" height="50" relative="1" as="geometry">
            <mxPoint x="150" y="389" as="sourcePoint" />
            <mxPoint x="270" y="389" as="targetPoint" />
          </mxGeometry>
        </mxCell>
        <mxCell id="Ae6ilyuZiUHAzL7-MvZ4-7" value="reset" style="text;html=1;align=center;verticalAlign=middle;whiteSpace=wrap;rounded=0;fontSize=20;" vertex="1" parent="1">
          <mxGeometry x="190" y="160" width="60" height="30" as="geometry" />
        </mxCell>
        <mxCell id="Ae6ilyuZiUHAzL7-MvZ4-8" value="clk" style="text;html=1;align=center;verticalAlign=middle;whiteSpace=wrap;rounded=0;fontSize=20;" vertex="1" parent="1">
          <mxGeometry x="190" y="120" width="60" height="30" as="geometry" />
        </mxCell>
        <mxCell id="Ae6ilyuZiUHAzL7-MvZ4-9" value="face [3:0]" style="text;html=1;align=center;verticalAlign=middle;whiteSpace=wrap;rounded=0;fontSize=20;strokeColor=none;fillColor=none;" vertex="1" parent="1">
          <mxGeometry x="170" y="210" width="100" height="30" as="geometry" />
        </mxCell>
        <mxCell id="Ae6ilyuZiUHAzL7-MvZ4-10" value="food_value [2:0]" style="text;html=1;align=center;verticalAlign=middle;whiteSpace=wrap;rounded=0;fontSize=20;strokeColor=none;fillColor=none;" vertex="1" parent="1">
          <mxGeometry x="130" y="250" width="150" height="30" as="geometry" />
        </mxCell>
        <mxCell id="Ae6ilyuZiUHAzL7-MvZ4-11" value="joy_value [2:0]" style="text;html=1;align=center;verticalAlign=middle;whiteSpace=wrap;rounded=0;fontSize=20;strokeColor=none;fillColor=none;" vertex="1" parent="1">
          <mxGeometry x="137.5" y="349" width="135" height="30" as="geometry" />
        </mxCell>
        <mxCell id="Ae6ilyuZiUHAzL7-MvZ4-12" value="energy_value [2:0]" style="text;html=1;align=center;verticalAlign=middle;whiteSpace=wrap;rounded=0;fontSize=20;strokeColor=none;fillColor=none;" vertex="1" parent="1">
          <mxGeometry x="112.5" y="300" width="170" height="30" as="geometry" />
        </mxCell>
        <mxCell id="q7tmWw0_ORR5yV9kvsOo-1" value="" style="endArrow=classic;html=1;rounded=0;" edge="1" parent="1">
          <mxGeometry width="50" height="50" relative="1" as="geometry">
            <mxPoint x="680" y="300" as="sourcePoint" />
            <mxPoint x="770" y="300" as="targetPoint" />
          </mxGeometry>
        </mxCell>
        <mxCell id="q7tmWw0_ORR5yV9kvsOo-2" value="rs" style="edgeLabel;html=1;align=center;verticalAlign=middle;resizable=0;points=[];fontSize=20;" vertex="1" connectable="0" parent="q7tmWw0_ORR5yV9kvsOo-1">
          <mxGeometry x="-0.2183" y="1" relative="1" as="geometry">
            <mxPoint x="15" y="-19" as="offset" />
          </mxGeometry>
        </mxCell>
        <mxCell id="q7tmWw0_ORR5yV9kvsOo-3" value="" style="endArrow=classic;html=1;rounded=0;" edge="1" parent="1">
          <mxGeometry width="50" height="50" relative="1" as="geometry">
            <mxPoint x="680" y="250" as="sourcePoint" />
            <mxPoint x="770" y="250" as="targetPoint" />
          </mxGeometry>
        </mxCell>
        <mxCell id="q7tmWw0_ORR5yV9kvsOo-4" value="rw" style="edgeLabel;html=1;align=center;verticalAlign=middle;resizable=0;points=[];fontSize=20;" vertex="1" connectable="0" parent="q7tmWw0_ORR5yV9kvsOo-3">
          <mxGeometry x="-0.2706" y="-1" relative="1" as="geometry">
            <mxPoint x="7" y="-26" as="offset" />
          </mxGeometry>
        </mxCell>
        <mxCell id="q7tmWw0_ORR5yV9kvsOo-5" value="" style="endArrow=classic;html=1;rounded=0;" edge="1" parent="1">
          <mxGeometry width="50" height="50" relative="1" as="geometry">
            <mxPoint x="680" y="364.40999999999997" as="sourcePoint" />
            <mxPoint x="790" y="364.40999999999997" as="targetPoint" />
          </mxGeometry>
        </mxCell>
        <mxCell id="q7tmWw0_ORR5yV9kvsOo-6" value="data[7:0]" style="edgeLabel;html=1;align=center;verticalAlign=middle;resizable=0;points=[];fontSize=20;" vertex="1" connectable="0" parent="q7tmWw0_ORR5yV9kvsOo-5">
          <mxGeometry x="-0.166" y="4" relative="1" as="geometry">
            <mxPoint x="4" y="-20" as="offset" />
          </mxGeometry>
        </mxCell>
        <mxCell id="q7tmWw0_ORR5yV9kvsOo-7" value="" style="endArrow=classic;html=1;rounded=0;" edge="1" parent="1">
          <mxGeometry width="50" height="50" relative="1" as="geometry">
            <mxPoint x="690" y="180" as="sourcePoint" />
            <mxPoint x="780" y="180" as="targetPoint" />
          </mxGeometry>
        </mxCell>
        <mxCell id="q7tmWw0_ORR5yV9kvsOo-8" value="enable" style="edgeLabel;html=1;align=center;verticalAlign=middle;resizable=0;points=[];fontStyle=1;fontSize=16;" vertex="1" connectable="0" parent="q7tmWw0_ORR5yV9kvsOo-7">
          <mxGeometry x="-0.0366" relative="1" as="geometry">
            <mxPoint x="-4" y="-20" as="offset" />
          </mxGeometry>
        </mxCell>
      </root>
    </mxGraphModel>
  </diagram>
  <diagram id="iR-a8kHh5BggFe5wy7rK" name="task_manager">
    <mxGraphModel dx="1500" dy="887" grid="1" gridSize="10" guides="1" tooltips="1" connect="1" arrows="1" fold="1" page="1" pageScale="1" pageWidth="583" pageHeight="827" math="0" shadow="0">
      <root>
        <mxCell id="0" />
        <mxCell id="1" parent="0" />
        <mxCell id="My9RuJFvEsWSZJadz7fT-91" value="task_manager" style="swimlane;whiteSpace=wrap;html=1;startSize=23;fillColor=#B3B3B3;" vertex="1" parent="1">
          <mxGeometry x="215" y="70" width="393" height="520" as="geometry" />
        </mxCell>
        <mxCell id="My9RuJFvEsWSZJadz7fT-92" value="checker" style="swimlane;whiteSpace=wrap;html=1;fillColor=#B3B3B3;" vertex="1" parent="My9RuJFvEsWSZJadz7fT-91">
          <mxGeometry x="67.5" y="61" width="77" height="90" as="geometry" />
        </mxCell>
        <mxCell id="My9RuJFvEsWSZJadz7fT-93" value="" style="endArrow=none;html=1;rounded=0;exitX=0;exitY=1;exitDx=0;exitDy=0;" edge="1" parent="My9RuJFvEsWSZJadz7fT-91" source="My9RuJFvEsWSZJadz7fT-92">
          <mxGeometry width="50" height="50" relative="1" as="geometry">
            <mxPoint x="152" y="171" as="sourcePoint" />
            <mxPoint x="82" y="141" as="targetPoint" />
          </mxGeometry>
        </mxCell>
        <mxCell id="My9RuJFvEsWSZJadz7fT-94" value="" style="endArrow=none;html=1;rounded=0;exitX=0;exitY=0.75;exitDx=0;exitDy=0;" edge="1" parent="My9RuJFvEsWSZJadz7fT-91" source="My9RuJFvEsWSZJadz7fT-92">
          <mxGeometry width="50" height="50" relative="1" as="geometry">
            <mxPoint x="72" y="131" as="sourcePoint" />
            <mxPoint x="82" y="141" as="targetPoint" />
          </mxGeometry>
        </mxCell>
        <mxCell id="My9RuJFvEsWSZJadz7fT-95" value="" style="endArrow=none;dashed=1;html=1;dashPattern=1 3;strokeWidth=2;rounded=0;" edge="1" parent="My9RuJFvEsWSZJadz7fT-91">
          <mxGeometry width="50" height="50" relative="1" as="geometry">
            <mxPoint x="36" y="430" as="sourcePoint" />
            <mxPoint x="36" y="50" as="targetPoint" />
          </mxGeometry>
        </mxCell>
        <mxCell id="My9RuJFvEsWSZJadz7fT-96" value="" style="endArrow=classic;html=1;rounded=0;exitX=1;exitY=0.75;exitDx=0;exitDy=0;entryX=0.368;entryY=0.055;entryDx=0;entryDy=0;entryPerimeter=0;" edge="1" parent="My9RuJFvEsWSZJadz7fT-91" source="My9RuJFvEsWSZJadz7fT-92" target="My9RuJFvEsWSZJadz7fT-98">
          <mxGeometry width="50" height="50" relative="1" as="geometry">
            <mxPoint x="139.5" y="111" as="sourcePoint" />
            <mxPoint x="222.5" y="176" as="targetPoint" />
            <Array as="points">
              <mxPoint x="257.5" y="128" />
              <mxPoint x="306.5" y="128" />
            </Array>
          </mxGeometry>
        </mxCell>
        <mxCell id="My9RuJFvEsWSZJadz7fT-97" value="change_face" style="edgeLabel;html=1;align=center;verticalAlign=middle;resizable=0;points=[];fontSize=15;" vertex="1" connectable="0" parent="My9RuJFvEsWSZJadz7fT-96">
          <mxGeometry x="-0.0195" y="-1" relative="1" as="geometry">
            <mxPoint x="-13" y="-3" as="offset" />
          </mxGeometry>
        </mxCell>
        <mxCell id="My9RuJFvEsWSZJadz7fT-98" value="" style="whiteSpace=wrap;html=1;aspect=fixed;" vertex="1" parent="My9RuJFvEsWSZJadz7fT-91">
          <mxGeometry x="277.5" y="191" width="80" height="80" as="geometry" />
        </mxCell>
        <mxCell id="My9RuJFvEsWSZJadz7fT-99" value="checker" style="swimlane;whiteSpace=wrap;html=1;startSize=23;fillColor=#B3B3B3;" vertex="1" parent="My9RuJFvEsWSZJadz7fT-91">
          <mxGeometry x="67.5" y="171" width="77" height="90" as="geometry" />
        </mxCell>
        <mxCell id="My9RuJFvEsWSZJadz7fT-100" value="checker" style="swimlane;whiteSpace=wrap;html=1;startSize=23;fillColor=#B3B3B3;" vertex="1" parent="My9RuJFvEsWSZJadz7fT-91">
          <mxGeometry x="67.5" y="281" width="77" height="90" as="geometry" />
        </mxCell>
        <mxCell id="My9RuJFvEsWSZJadz7fT-101" value="" style="endArrow=none;html=1;rounded=0;exitX=0;exitY=1;exitDx=0;exitDy=0;" edge="1" parent="My9RuJFvEsWSZJadz7fT-100">
          <mxGeometry width="50" height="50" relative="1" as="geometry">
            <mxPoint y="90" as="sourcePoint" />
            <mxPoint x="14.5" y="80" as="targetPoint" />
          </mxGeometry>
        </mxCell>
        <mxCell id="My9RuJFvEsWSZJadz7fT-102" value="" style="endArrow=none;html=1;rounded=0;exitX=0;exitY=0.75;exitDx=0;exitDy=0;" edge="1" parent="My9RuJFvEsWSZJadz7fT-100">
          <mxGeometry width="50" height="50" relative="1" as="geometry">
            <mxPoint y="68" as="sourcePoint" />
            <mxPoint x="14.5" y="80" as="targetPoint" />
          </mxGeometry>
        </mxCell>
        <mxCell id="My9RuJFvEsWSZJadz7fT-103" value="checker" style="swimlane;whiteSpace=wrap;html=1;startSize=23;fillColor=#B3B3B3;" vertex="1" parent="My9RuJFvEsWSZJadz7fT-91">
          <mxGeometry x="67.5" y="391" width="77" height="90" as="geometry" />
        </mxCell>
        <mxCell id="My9RuJFvEsWSZJadz7fT-104" value="" style="endArrow=classic;html=1;rounded=0;exitX=1;exitY=0.5;exitDx=0;exitDy=0;entryX=0;entryY=0.25;entryDx=0;entryDy=0;" edge="1" parent="My9RuJFvEsWSZJadz7fT-91" source="My9RuJFvEsWSZJadz7fT-99" target="My9RuJFvEsWSZJadz7fT-98">
          <mxGeometry width="50" height="50" relative="1" as="geometry">
            <mxPoint x="477.5" y="181" as="sourcePoint" />
            <mxPoint x="527.5" y="131" as="targetPoint" />
          </mxGeometry>
        </mxCell>
        <mxCell id="My9RuJFvEsWSZJadz7fT-105" value="food_change" style="edgeLabel;html=1;align=center;verticalAlign=middle;resizable=0;points=[];fontSize=15;" vertex="1" connectable="0" parent="My9RuJFvEsWSZJadz7fT-104">
          <mxGeometry x="-0.2827" y="-4" relative="1" as="geometry">
            <mxPoint x="16" y="-7" as="offset" />
          </mxGeometry>
        </mxCell>
        <mxCell id="My9RuJFvEsWSZJadz7fT-106" value="" style="endArrow=classic;html=1;rounded=0;exitX=1;exitY=0.75;exitDx=0;exitDy=0;entryX=0.25;entryY=1;entryDx=0;entryDy=0;" edge="1" parent="My9RuJFvEsWSZJadz7fT-91" source="My9RuJFvEsWSZJadz7fT-100" target="My9RuJFvEsWSZJadz7fT-98">
          <mxGeometry width="50" height="50" relative="1" as="geometry">
            <mxPoint x="477.5" y="181" as="sourcePoint" />
            <mxPoint x="297.5" y="321" as="targetPoint" />
            <Array as="points">
              <mxPoint x="297.5" y="349" />
            </Array>
          </mxGeometry>
        </mxCell>
        <mxCell id="My9RuJFvEsWSZJadz7fT-107" value="energy_change" style="edgeLabel;html=1;align=center;verticalAlign=middle;resizable=0;points=[];fontSize=15;" vertex="1" connectable="0" parent="My9RuJFvEsWSZJadz7fT-106">
          <mxGeometry x="-0.0541" relative="1" as="geometry">
            <mxPoint as="offset" />
          </mxGeometry>
        </mxCell>
        <mxCell id="My9RuJFvEsWSZJadz7fT-108" value="" style="endArrow=classic;html=1;rounded=0;entryX=0.5;entryY=1;entryDx=0;entryDy=0;" edge="1" parent="My9RuJFvEsWSZJadz7fT-91" target="My9RuJFvEsWSZJadz7fT-98">
          <mxGeometry width="50" height="50" relative="1" as="geometry">
            <mxPoint x="144.5" y="451" as="sourcePoint" />
            <mxPoint x="194.5" y="401" as="targetPoint" />
            <Array as="points">
              <mxPoint x="317.5" y="451" />
            </Array>
          </mxGeometry>
        </mxCell>
        <mxCell id="My9RuJFvEsWSZJadz7fT-109" value="joy_value" style="edgeLabel;html=1;align=center;verticalAlign=middle;resizable=0;points=[];fontSize=15;" vertex="1" connectable="0" parent="My9RuJFvEsWSZJadz7fT-108">
          <mxGeometry x="0.162" y="-5" relative="1" as="geometry">
            <mxPoint x="-65" y="40" as="offset" />
          </mxGeometry>
        </mxCell>
        <mxCell id="My9RuJFvEsWSZJadz7fT-110" value="" style="endArrow=none;dashed=1;html=1;dashPattern=1 3;strokeWidth=2;rounded=0;" edge="1" parent="My9RuJFvEsWSZJadz7fT-91">
          <mxGeometry width="50" height="50" relative="1" as="geometry">
            <mxPoint x="40" y="50" as="sourcePoint" />
            <mxPoint x="340" y="190" as="targetPoint" />
            <Array as="points">
              <mxPoint x="332" y="50" />
              <mxPoint x="332" y="190" />
            </Array>
          </mxGeometry>
        </mxCell>
        <mxCell id="My9RuJFvEsWSZJadz7fT-125" value="" style="endArrow=none;dashed=1;html=1;dashPattern=1 3;strokeWidth=2;rounded=0;" edge="1" parent="My9RuJFvEsWSZJadz7fT-91">
          <mxGeometry width="50" height="50" relative="1" as="geometry">
            <mxPoint x="37.5" y="320" as="sourcePoint" />
            <mxPoint x="67.5" y="320" as="targetPoint" />
          </mxGeometry>
        </mxCell>
        <mxCell id="My9RuJFvEsWSZJadz7fT-126" value="" style="endArrow=none;dashed=1;html=1;dashPattern=1 3;strokeWidth=2;rounded=0;" edge="1" parent="My9RuJFvEsWSZJadz7fT-91">
          <mxGeometry width="50" height="50" relative="1" as="geometry">
            <mxPoint x="37.5" y="430" as="sourcePoint" />
            <mxPoint x="67.5" y="430" as="targetPoint" />
          </mxGeometry>
        </mxCell>
        <mxCell id="My9RuJFvEsWSZJadz7fT-127" value="" style="endArrow=none;dashed=1;html=1;dashPattern=1 3;strokeWidth=2;rounded=0;" edge="1" parent="My9RuJFvEsWSZJadz7fT-91">
          <mxGeometry width="50" height="50" relative="1" as="geometry">
            <mxPoint x="37.5" y="200" as="sourcePoint" />
            <mxPoint x="67.5" y="200" as="targetPoint" />
          </mxGeometry>
        </mxCell>
        <mxCell id="My9RuJFvEsWSZJadz7fT-128" value="" style="endArrow=none;dashed=1;html=1;dashPattern=1 3;strokeWidth=2;rounded=0;" edge="1" parent="My9RuJFvEsWSZJadz7fT-91">
          <mxGeometry width="50" height="50" relative="1" as="geometry">
            <mxPoint x="37.5" y="96" as="sourcePoint" />
            <mxPoint x="67.5" y="96" as="targetPoint" />
          </mxGeometry>
        </mxCell>
        <mxCell id="My9RuJFvEsWSZJadz7fT-111" value="" style="endArrow=classic;html=1;rounded=0;strokeColor=#FF3333;" edge="1" parent="1">
          <mxGeometry width="50" height="50" relative="1" as="geometry">
            <mxPoint x="75" y="190" as="sourcePoint" />
            <mxPoint x="285" y="190" as="targetPoint" />
          </mxGeometry>
        </mxCell>
        <mxCell id="My9RuJFvEsWSZJadz7fT-112" value="" style="endArrow=classic;html=1;rounded=0;fillColor=#B5739D;strokeColor=#0000FF;entryX=0;entryY=0.75;entryDx=0;entryDy=0;" edge="1" parent="1" target="My9RuJFvEsWSZJadz7fT-99">
          <mxGeometry width="50" height="50" relative="1" as="geometry">
            <mxPoint x="90" y="310" as="sourcePoint" />
            <mxPoint x="210" y="310" as="targetPoint" />
          </mxGeometry>
        </mxCell>
        <mxCell id="My9RuJFvEsWSZJadz7fT-113" value="" style="endArrow=classic;html=1;rounded=0;strokeColor=#FFD966;" edge="1" parent="1">
          <mxGeometry width="50" height="50" relative="1" as="geometry">
            <mxPoint x="60" y="410" as="sourcePoint" />
            <mxPoint x="285" y="410" as="targetPoint" />
          </mxGeometry>
        </mxCell>
        <mxCell id="My9RuJFvEsWSZJadz7fT-114" value="" style="endArrow=classic;html=1;rounded=0;strokeColor=#00CC00;" edge="1" parent="1">
          <mxGeometry width="50" height="50" relative="1" as="geometry">
            <mxPoint x="45" y="520" as="sourcePoint" />
            <mxPoint x="285" y="520" as="targetPoint" />
          </mxGeometry>
        </mxCell>
        <mxCell id="My9RuJFvEsWSZJadz7fT-115" value="face [3:0]" style="text;html=1;align=center;verticalAlign=middle;whiteSpace=wrap;rounded=0;fontSize=20;strokeColor=none;fillColor=none;" vertex="1" parent="1">
          <mxGeometry x="85" y="150" width="100" height="30" as="geometry" />
        </mxCell>
        <mxCell id="My9RuJFvEsWSZJadz7fT-116" value="food_value [2:0]" style="text;html=1;align=center;verticalAlign=middle;whiteSpace=wrap;rounded=0;fontSize=20;strokeColor=none;fillColor=none;" vertex="1" parent="1">
          <mxGeometry x="60" y="270" width="150" height="30" as="geometry" />
        </mxCell>
        <mxCell id="My9RuJFvEsWSZJadz7fT-117" value="energy_value [2:0]" style="text;html=1;align=center;verticalAlign=middle;whiteSpace=wrap;rounded=0;fontSize=20;strokeColor=none;fillColor=none;" vertex="1" parent="1">
          <mxGeometry x="40" y="370" width="175" height="30" as="geometry" />
        </mxCell>
        <mxCell id="My9RuJFvEsWSZJadz7fT-118" value="joy_value [2:0]" style="text;html=1;align=center;verticalAlign=middle;whiteSpace=wrap;rounded=0;fontSize=20;strokeColor=none;fillColor=none;" vertex="1" parent="1">
          <mxGeometry x="67.5" y="460" width="135" height="30" as="geometry" />
        </mxCell>
        <mxCell id="My9RuJFvEsWSZJadz7fT-119" value="" style="endArrow=none;html=1;rounded=0;exitX=0;exitY=1;exitDx=0;exitDy=0;" edge="1" parent="1">
          <mxGeometry width="50" height="50" relative="1" as="geometry">
            <mxPoint x="286" y="329" as="sourcePoint" />
            <mxPoint x="300.5" y="319" as="targetPoint" />
          </mxGeometry>
        </mxCell>
        <mxCell id="My9RuJFvEsWSZJadz7fT-120" value="" style="endArrow=none;html=1;rounded=0;exitX=0;exitY=0.75;exitDx=0;exitDy=0;" edge="1" parent="1">
          <mxGeometry width="50" height="50" relative="1" as="geometry">
            <mxPoint x="286" y="307" as="sourcePoint" />
            <mxPoint x="300.5" y="319" as="targetPoint" />
          </mxGeometry>
        </mxCell>
        <mxCell id="My9RuJFvEsWSZJadz7fT-121" value="" style="endArrow=none;html=1;rounded=0;exitX=0;exitY=1;exitDx=0;exitDy=0;" edge="1" parent="1">
          <mxGeometry width="50" height="50" relative="1" as="geometry">
            <mxPoint x="286" y="548" as="sourcePoint" />
            <mxPoint x="300.5" y="538" as="targetPoint" />
          </mxGeometry>
        </mxCell>
        <mxCell id="My9RuJFvEsWSZJadz7fT-122" value="" style="endArrow=none;html=1;rounded=0;exitX=0;exitY=0.75;exitDx=0;exitDy=0;" edge="1" parent="1">
          <mxGeometry width="50" height="50" relative="1" as="geometry">
            <mxPoint x="286" y="526" as="sourcePoint" />
            <mxPoint x="300.5" y="538" as="targetPoint" />
          </mxGeometry>
        </mxCell>
        <mxCell id="My9RuJFvEsWSZJadz7fT-123" value="" style="endArrow=classic;html=1;rounded=0;exitX=1;exitY=0.5;exitDx=0;exitDy=0;entryX=-0.001;entryY=0.611;entryDx=0;entryDy=0;entryPerimeter=0;" edge="1" parent="1">
          <mxGeometry width="50" height="50" relative="1" as="geometry">
            <mxPoint x="572.5" y="301" as="sourcePoint" />
            <mxPoint x="722.5" y="300" as="targetPoint" />
          </mxGeometry>
        </mxCell>
        <mxCell id="My9RuJFvEsWSZJadz7fT-124" value="new_update" style="edgeLabel;html=1;align=center;verticalAlign=middle;resizable=0;points=[];fontSize=15;" vertex="1" connectable="0" parent="My9RuJFvEsWSZJadz7fT-123">
          <mxGeometry x="0.3195" y="2" relative="1" as="geometry">
            <mxPoint x="-6" y="2" as="offset" />
          </mxGeometry>
        </mxCell>
        <mxCell id="My9RuJFvEsWSZJadz7fT-129" value="" style="endArrow=classic;html=1;rounded=0;dashed=1;dashPattern=1 4;" edge="1" parent="1">
          <mxGeometry width="50" height="50" relative="1" as="geometry">
            <mxPoint x="90" y="120" as="sourcePoint" />
            <mxPoint x="210" y="120" as="targetPoint" />
          </mxGeometry>
        </mxCell>
        <mxCell id="My9RuJFvEsWSZJadz7fT-130" value="reset" style="text;html=1;align=center;verticalAlign=middle;whiteSpace=wrap;rounded=0;fontSize=20;" vertex="1" parent="1">
          <mxGeometry x="120" y="90" width="60" height="30" as="geometry" />
        </mxCell>
        <mxCell id="My9RuJFvEsWSZJadz7fT-131" value="" style="endArrow=classic;html=1;rounded=0;" edge="1" parent="1">
          <mxGeometry width="50" height="50" relative="1" as="geometry">
            <mxPoint x="90" y="570" as="sourcePoint" />
            <mxPoint x="210" y="570" as="targetPoint" />
          </mxGeometry>
        </mxCell>
        <mxCell id="My9RuJFvEsWSZJadz7fT-132" value="clk" style="text;html=1;align=center;verticalAlign=middle;whiteSpace=wrap;rounded=0;fontSize=20;" vertex="1" parent="1">
          <mxGeometry x="120" y="540" width="60" height="30" as="geometry" />
        </mxCell>
      </root>
    </mxGraphModel>
  </diagram>
  <diagram id="vN1f4mo-06wr1znjCWwi" name="lcd">
    <mxGraphModel dx="1050" dy="2275" grid="1" gridSize="10" guides="1" tooltips="1" connect="1" arrows="1" fold="1" page="1" pageScale="1" pageWidth="583" pageHeight="827" math="0" shadow="0">
      <root>
        <mxCell id="0" />
        <mxCell id="1" parent="0" />
        <mxCell id="_JN7Ap7qeWiaTL78hcln-5" value="" style="group;fillColor=#3399FF;container=0;" parent="1" vertex="1" connectable="0">
          <mxGeometry x="110" y="-1400" width="40" height="80" as="geometry" />
        </mxCell>
        <mxCell id="_JN7Ap7qeWiaTL78hcln-11" value="" style="group" parent="1" vertex="1" connectable="0">
          <mxGeometry x="190" y="-1400" width="40" height="80" as="geometry" />
        </mxCell>
        <mxCell id="_JN7Ap7qeWiaTL78hcln-12" value="" style="rounded=0;whiteSpace=wrap;html=1;" parent="_JN7Ap7qeWiaTL78hcln-11" vertex="1">
          <mxGeometry width="40" height="80" as="geometry" />
        </mxCell>
        <mxCell id="_JN7Ap7qeWiaTL78hcln-13" value="" style="endArrow=none;html=1;rounded=0;exitX=0;exitY=0.5;exitDx=0;exitDy=0;entryX=1;entryY=0.5;entryDx=0;entryDy=0;" parent="_JN7Ap7qeWiaTL78hcln-11" source="_JN7Ap7qeWiaTL78hcln-12" target="_JN7Ap7qeWiaTL78hcln-12" edge="1">
          <mxGeometry width="50" height="50" relative="1" as="geometry">
            <mxPoint x="190" y="230" as="sourcePoint" />
            <mxPoint x="240" y="170" as="targetPoint" />
          </mxGeometry>
        </mxCell>
        <mxCell id="_JN7Ap7qeWiaTL78hcln-14" value="" style="group" parent="1" vertex="1" connectable="0">
          <mxGeometry x="230" y="-1400" width="130" height="80" as="geometry" />
        </mxCell>
        <mxCell id="_JN7Ap7qeWiaTL78hcln-15" value="" style="rounded=0;whiteSpace=wrap;html=1;" parent="_JN7Ap7qeWiaTL78hcln-14" vertex="1">
          <mxGeometry width="40" height="80" as="geometry" />
        </mxCell>
        <mxCell id="_JN7Ap7qeWiaTL78hcln-16" value="" style="endArrow=none;html=1;rounded=0;exitX=0;exitY=0.5;exitDx=0;exitDy=0;entryX=1;entryY=0.5;entryDx=0;entryDy=0;" parent="_JN7Ap7qeWiaTL78hcln-14" source="_JN7Ap7qeWiaTL78hcln-15" target="_JN7Ap7qeWiaTL78hcln-15" edge="1">
          <mxGeometry width="50" height="50" relative="1" as="geometry">
            <mxPoint x="190" y="230" as="sourcePoint" />
            <mxPoint x="240" y="170" as="targetPoint" />
          </mxGeometry>
        </mxCell>
        <mxCell id="_JN7Ap7qeWiaTL78hcln-17" value="&lt;span style=&quot;font-size: 30px;&quot;&gt;F&lt;/span&gt;" style="text;html=1;align=center;verticalAlign=middle;whiteSpace=wrap;rounded=0;" parent="_JN7Ap7qeWiaTL78hcln-14" vertex="1">
          <mxGeometry width="40" height="40" as="geometry" />
        </mxCell>
        <mxCell id="_JN7Ap7qeWiaTL78hcln-18" value="&lt;span style=&quot;font-size: 30px;&quot;&gt;E&lt;/span&gt;" style="text;html=1;align=center;verticalAlign=middle;whiteSpace=wrap;rounded=0;" parent="_JN7Ap7qeWiaTL78hcln-14" vertex="1">
          <mxGeometry y="40" width="40" height="40" as="geometry" />
        </mxCell>
        <mxCell id="_JN7Ap7qeWiaTL78hcln-19" value="" style="group" parent="1" vertex="1" connectable="0">
          <mxGeometry x="270" y="-1400" width="60" height="80" as="geometry" />
        </mxCell>
        <mxCell id="_JN7Ap7qeWiaTL78hcln-20" value="" style="rounded=0;whiteSpace=wrap;html=1;" parent="_JN7Ap7qeWiaTL78hcln-19" vertex="1">
          <mxGeometry width="40" height="80" as="geometry" />
        </mxCell>
        <mxCell id="_JN7Ap7qeWiaTL78hcln-21" value="" style="endArrow=none;html=1;rounded=0;exitX=0;exitY=0.5;exitDx=0;exitDy=0;entryX=1;entryY=0.5;entryDx=0;entryDy=0;" parent="_JN7Ap7qeWiaTL78hcln-19" source="_JN7Ap7qeWiaTL78hcln-20" target="_JN7Ap7qeWiaTL78hcln-20" edge="1">
          <mxGeometry width="50" height="50" relative="1" as="geometry">
            <mxPoint x="190" y="230" as="sourcePoint" />
            <mxPoint x="240" y="170" as="targetPoint" />
          </mxGeometry>
        </mxCell>
        <mxCell id="_JN7Ap7qeWiaTL78hcln-22" value="&lt;span style=&quot;font-size: 30px;&quot;&gt;O&lt;/span&gt;" style="text;html=1;align=center;verticalAlign=middle;whiteSpace=wrap;rounded=0;" parent="_JN7Ap7qeWiaTL78hcln-19" vertex="1">
          <mxGeometry width="40" height="40" as="geometry" />
        </mxCell>
        <mxCell id="_JN7Ap7qeWiaTL78hcln-23" value="&lt;span style=&quot;font-size: 30px;&quot;&gt;N&lt;/span&gt;" style="text;html=1;align=center;verticalAlign=middle;whiteSpace=wrap;rounded=0;" parent="_JN7Ap7qeWiaTL78hcln-19" vertex="1">
          <mxGeometry y="40" width="40" height="40" as="geometry" />
        </mxCell>
        <mxCell id="_JN7Ap7qeWiaTL78hcln-24" value="" style="group" parent="1" vertex="1" connectable="0">
          <mxGeometry x="310" y="-1400" width="40" height="80" as="geometry" />
        </mxCell>
        <mxCell id="_JN7Ap7qeWiaTL78hcln-25" value="" style="rounded=0;whiteSpace=wrap;html=1;" parent="_JN7Ap7qeWiaTL78hcln-24" vertex="1">
          <mxGeometry width="40" height="80" as="geometry" />
        </mxCell>
        <mxCell id="_JN7Ap7qeWiaTL78hcln-26" value="" style="endArrow=none;html=1;rounded=0;exitX=0;exitY=0.5;exitDx=0;exitDy=0;entryX=1;entryY=0.5;entryDx=0;entryDy=0;" parent="_JN7Ap7qeWiaTL78hcln-24" source="_JN7Ap7qeWiaTL78hcln-25" target="_JN7Ap7qeWiaTL78hcln-25" edge="1">
          <mxGeometry width="50" height="50" relative="1" as="geometry">
            <mxPoint x="190" y="230" as="sourcePoint" />
            <mxPoint x="240" y="170" as="targetPoint" />
          </mxGeometry>
        </mxCell>
        <mxCell id="_JN7Ap7qeWiaTL78hcln-27" value="&lt;span style=&quot;font-size: 30px;&quot;&gt;O&lt;/span&gt;" style="text;html=1;align=center;verticalAlign=middle;whiteSpace=wrap;rounded=0;" parent="_JN7Ap7qeWiaTL78hcln-24" vertex="1">
          <mxGeometry width="40" height="40" as="geometry" />
        </mxCell>
        <mxCell id="_JN7Ap7qeWiaTL78hcln-28" value="&lt;span style=&quot;font-size: 30px;&quot;&gt;E&lt;/span&gt;" style="text;html=1;align=center;verticalAlign=middle;whiteSpace=wrap;rounded=0;" parent="_JN7Ap7qeWiaTL78hcln-24" vertex="1">
          <mxGeometry y="40" width="40" height="40" as="geometry" />
        </mxCell>
        <mxCell id="_JN7Ap7qeWiaTL78hcln-29" value="" style="group" parent="1" vertex="1" connectable="0">
          <mxGeometry x="350" y="-1400" width="40" height="80" as="geometry" />
        </mxCell>
        <mxCell id="_JN7Ap7qeWiaTL78hcln-30" value="" style="rounded=0;whiteSpace=wrap;html=1;" parent="_JN7Ap7qeWiaTL78hcln-29" vertex="1">
          <mxGeometry width="40" height="80" as="geometry" />
        </mxCell>
        <mxCell id="_JN7Ap7qeWiaTL78hcln-31" value="" style="endArrow=none;html=1;rounded=0;exitX=0;exitY=0.5;exitDx=0;exitDy=0;entryX=1;entryY=0.5;entryDx=0;entryDy=0;" parent="_JN7Ap7qeWiaTL78hcln-29" source="_JN7Ap7qeWiaTL78hcln-30" target="_JN7Ap7qeWiaTL78hcln-30" edge="1">
          <mxGeometry width="50" height="50" relative="1" as="geometry">
            <mxPoint x="190" y="230" as="sourcePoint" />
            <mxPoint x="240" y="170" as="targetPoint" />
          </mxGeometry>
        </mxCell>
        <mxCell id="_JN7Ap7qeWiaTL78hcln-32" value="&lt;span style=&quot;font-size: 30px;&quot;&gt;D&lt;/span&gt;" style="text;html=1;align=center;verticalAlign=middle;whiteSpace=wrap;rounded=0;" parent="_JN7Ap7qeWiaTL78hcln-29" vertex="1">
          <mxGeometry width="40" height="40" as="geometry" />
        </mxCell>
        <mxCell id="_JN7Ap7qeWiaTL78hcln-33" value="&lt;span style=&quot;font-size: 30px;&quot;&gt;R&lt;/span&gt;" style="text;html=1;align=center;verticalAlign=middle;whiteSpace=wrap;rounded=0;" parent="_JN7Ap7qeWiaTL78hcln-29" vertex="1">
          <mxGeometry y="40" width="40" height="40" as="geometry" />
        </mxCell>
        <mxCell id="_JN7Ap7qeWiaTL78hcln-34" value="" style="group" parent="1" vertex="1" connectable="0">
          <mxGeometry x="390" y="-1400" width="40" height="80" as="geometry" />
        </mxCell>
        <mxCell id="_JN7Ap7qeWiaTL78hcln-35" value="" style="rounded=0;whiteSpace=wrap;html=1;" parent="_JN7Ap7qeWiaTL78hcln-34" vertex="1">
          <mxGeometry width="40" height="80" as="geometry" />
        </mxCell>
        <mxCell id="_JN7Ap7qeWiaTL78hcln-36" value="" style="endArrow=none;html=1;rounded=0;exitX=0;exitY=0.5;exitDx=0;exitDy=0;entryX=1;entryY=0.5;entryDx=0;entryDy=0;" parent="_JN7Ap7qeWiaTL78hcln-34" source="_JN7Ap7qeWiaTL78hcln-35" target="_JN7Ap7qeWiaTL78hcln-35" edge="1">
          <mxGeometry width="50" height="50" relative="1" as="geometry">
            <mxPoint x="190" y="230" as="sourcePoint" />
            <mxPoint x="240" y="170" as="targetPoint" />
          </mxGeometry>
        </mxCell>
        <mxCell id="_JN7Ap7qeWiaTL78hcln-37" value="&lt;span style=&quot;font-size: 30px;&quot;&gt;G&lt;/span&gt;" style="text;html=1;align=center;verticalAlign=middle;whiteSpace=wrap;rounded=0;" parent="_JN7Ap7qeWiaTL78hcln-34" vertex="1">
          <mxGeometry y="40" width="40" height="40" as="geometry" />
        </mxCell>
        <mxCell id="_JN7Ap7qeWiaTL78hcln-38" value="" style="group" parent="1" vertex="1" connectable="0">
          <mxGeometry x="430" y="-1400" width="40" height="80" as="geometry" />
        </mxCell>
        <mxCell id="_JN7Ap7qeWiaTL78hcln-39" value="" style="rounded=0;whiteSpace=wrap;html=1;" parent="_JN7Ap7qeWiaTL78hcln-38" vertex="1">
          <mxGeometry width="40" height="80" as="geometry" />
        </mxCell>
        <mxCell id="_JN7Ap7qeWiaTL78hcln-40" value="" style="endArrow=none;html=1;rounded=0;exitX=0;exitY=0.5;exitDx=0;exitDy=0;entryX=1;entryY=0.5;entryDx=0;entryDy=0;" parent="_JN7Ap7qeWiaTL78hcln-38" source="_JN7Ap7qeWiaTL78hcln-39" target="_JN7Ap7qeWiaTL78hcln-39" edge="1">
          <mxGeometry width="50" height="50" relative="1" as="geometry">
            <mxPoint x="190" y="230" as="sourcePoint" />
            <mxPoint x="240" y="170" as="targetPoint" />
          </mxGeometry>
        </mxCell>
        <mxCell id="_JN7Ap7qeWiaTL78hcln-41" value="&lt;span style=&quot;font-size: 30px;&quot;&gt;Y&lt;/span&gt;" style="text;html=1;align=center;verticalAlign=middle;whiteSpace=wrap;rounded=0;" parent="_JN7Ap7qeWiaTL78hcln-38" vertex="1">
          <mxGeometry y="40" width="40" height="40" as="geometry" />
        </mxCell>
        <mxCell id="_JN7Ap7qeWiaTL78hcln-42" value="&lt;font style=&quot;font-size: 30px;&quot;&gt;5&lt;/font&gt;" style="text;html=1;align=center;verticalAlign=middle;whiteSpace=wrap;rounded=0;" parent="_JN7Ap7qeWiaTL78hcln-38" vertex="1">
          <mxGeometry width="40" height="40" as="geometry" />
        </mxCell>
        <mxCell id="_JN7Ap7qeWiaTL78hcln-43" value="" style="group" parent="1" vertex="1" connectable="0">
          <mxGeometry x="470" y="-1400" width="40" height="80" as="geometry" />
        </mxCell>
        <mxCell id="_JN7Ap7qeWiaTL78hcln-44" value="" style="rounded=0;whiteSpace=wrap;html=1;" parent="_JN7Ap7qeWiaTL78hcln-43" vertex="1">
          <mxGeometry width="40" height="80" as="geometry" />
        </mxCell>
        <mxCell id="_JN7Ap7qeWiaTL78hcln-45" value="" style="endArrow=none;html=1;rounded=0;exitX=0;exitY=0.5;exitDx=0;exitDy=0;entryX=1;entryY=0.5;entryDx=0;entryDy=0;" parent="_JN7Ap7qeWiaTL78hcln-43" source="_JN7Ap7qeWiaTL78hcln-44" target="_JN7Ap7qeWiaTL78hcln-44" edge="1">
          <mxGeometry width="50" height="50" relative="1" as="geometry">
            <mxPoint x="190" y="230" as="sourcePoint" />
            <mxPoint x="240" y="170" as="targetPoint" />
          </mxGeometry>
        </mxCell>
        <mxCell id="_JN7Ap7qeWiaTL78hcln-46" value="" style="group" parent="1" vertex="1" connectable="0">
          <mxGeometry x="510" y="-1400" width="40" height="80" as="geometry" />
        </mxCell>
        <mxCell id="_JN7Ap7qeWiaTL78hcln-47" value="" style="rounded=0;whiteSpace=wrap;html=1;" parent="_JN7Ap7qeWiaTL78hcln-46" vertex="1">
          <mxGeometry width="40" height="80" as="geometry" />
        </mxCell>
        <mxCell id="_JN7Ap7qeWiaTL78hcln-48" value="" style="endArrow=none;html=1;rounded=0;exitX=0;exitY=0.5;exitDx=0;exitDy=0;entryX=1;entryY=0.5;entryDx=0;entryDy=0;" parent="_JN7Ap7qeWiaTL78hcln-46" source="_JN7Ap7qeWiaTL78hcln-47" target="_JN7Ap7qeWiaTL78hcln-47" edge="1">
          <mxGeometry width="50" height="50" relative="1" as="geometry">
            <mxPoint x="190" y="230" as="sourcePoint" />
            <mxPoint x="240" y="170" as="targetPoint" />
          </mxGeometry>
        </mxCell>
        <mxCell id="_JN7Ap7qeWiaTL78hcln-49" value="&lt;span style=&quot;font-size: 30px;&quot;&gt;J&lt;/span&gt;" style="text;html=1;align=center;verticalAlign=middle;whiteSpace=wrap;rounded=0;" parent="_JN7Ap7qeWiaTL78hcln-46" vertex="1">
          <mxGeometry width="40" height="40" as="geometry" />
        </mxCell>
        <mxCell id="_JN7Ap7qeWiaTL78hcln-50" value="&lt;font style=&quot;font-size: 30px;&quot;&gt;5&lt;/font&gt;" style="text;html=1;align=center;verticalAlign=middle;whiteSpace=wrap;rounded=0;" parent="_JN7Ap7qeWiaTL78hcln-46" vertex="1">
          <mxGeometry y="40" width="40" height="40" as="geometry" />
        </mxCell>
        <mxCell id="_JN7Ap7qeWiaTL78hcln-51" value="" style="group" parent="1" vertex="1" connectable="0">
          <mxGeometry x="550" y="-1400" width="40" height="80" as="geometry" />
        </mxCell>
        <mxCell id="_JN7Ap7qeWiaTL78hcln-52" value="" style="rounded=0;whiteSpace=wrap;html=1;" parent="_JN7Ap7qeWiaTL78hcln-51" vertex="1">
          <mxGeometry width="40" height="80" as="geometry" />
        </mxCell>
        <mxCell id="_JN7Ap7qeWiaTL78hcln-53" value="" style="endArrow=none;html=1;rounded=0;exitX=0;exitY=0.5;exitDx=0;exitDy=0;entryX=1;entryY=0.5;entryDx=0;entryDy=0;" parent="_JN7Ap7qeWiaTL78hcln-51" source="_JN7Ap7qeWiaTL78hcln-52" target="_JN7Ap7qeWiaTL78hcln-52" edge="1">
          <mxGeometry width="50" height="50" relative="1" as="geometry">
            <mxPoint x="190" y="230" as="sourcePoint" />
            <mxPoint x="240" y="170" as="targetPoint" />
          </mxGeometry>
        </mxCell>
        <mxCell id="_JN7Ap7qeWiaTL78hcln-54" value="&lt;span style=&quot;font-size: 30px;&quot;&gt;O&lt;/span&gt;" style="text;html=1;align=center;verticalAlign=middle;whiteSpace=wrap;rounded=0;" parent="_JN7Ap7qeWiaTL78hcln-51" vertex="1">
          <mxGeometry width="40" height="40" as="geometry" />
        </mxCell>
        <mxCell id="_JN7Ap7qeWiaTL78hcln-55" value="" style="group" parent="1" vertex="1" connectable="0">
          <mxGeometry x="590" y="-1400" width="40" height="80" as="geometry" />
        </mxCell>
        <mxCell id="_JN7Ap7qeWiaTL78hcln-56" value="" style="rounded=0;whiteSpace=wrap;html=1;" parent="_JN7Ap7qeWiaTL78hcln-55" vertex="1">
          <mxGeometry width="40" height="80" as="geometry" />
        </mxCell>
        <mxCell id="_JN7Ap7qeWiaTL78hcln-57" value="" style="endArrow=none;html=1;rounded=0;exitX=0;exitY=0.5;exitDx=0;exitDy=0;entryX=1;entryY=0.5;entryDx=0;entryDy=0;" parent="_JN7Ap7qeWiaTL78hcln-55" source="_JN7Ap7qeWiaTL78hcln-56" target="_JN7Ap7qeWiaTL78hcln-56" edge="1">
          <mxGeometry width="50" height="50" relative="1" as="geometry">
            <mxPoint x="190" y="230" as="sourcePoint" />
            <mxPoint x="240" y="170" as="targetPoint" />
          </mxGeometry>
        </mxCell>
        <mxCell id="_JN7Ap7qeWiaTL78hcln-58" value="&lt;span style=&quot;font-size: 30px;&quot;&gt;Y&lt;/span&gt;" style="text;html=1;align=center;verticalAlign=middle;whiteSpace=wrap;rounded=0;" parent="_JN7Ap7qeWiaTL78hcln-55" vertex="1">
          <mxGeometry width="40" height="40" as="geometry" />
        </mxCell>
        <mxCell id="_JN7Ap7qeWiaTL78hcln-59" value="" style="group" parent="1" vertex="1" connectable="0">
          <mxGeometry x="630" y="-1400" width="40" height="80" as="geometry" />
        </mxCell>
        <mxCell id="_JN7Ap7qeWiaTL78hcln-60" value="" style="rounded=0;whiteSpace=wrap;html=1;" parent="_JN7Ap7qeWiaTL78hcln-59" vertex="1">
          <mxGeometry width="40" height="80" as="geometry" />
        </mxCell>
        <mxCell id="_JN7Ap7qeWiaTL78hcln-61" value="" style="endArrow=none;html=1;rounded=0;exitX=0;exitY=0.5;exitDx=0;exitDy=0;entryX=1;entryY=0.5;entryDx=0;entryDy=0;" parent="_JN7Ap7qeWiaTL78hcln-59" source="_JN7Ap7qeWiaTL78hcln-60" target="_JN7Ap7qeWiaTL78hcln-60" edge="1">
          <mxGeometry width="50" height="50" relative="1" as="geometry">
            <mxPoint x="190" y="230" as="sourcePoint" />
            <mxPoint x="240" y="170" as="targetPoint" />
          </mxGeometry>
        </mxCell>
        <mxCell id="_JN7Ap7qeWiaTL78hcln-62" value="" style="group" parent="1" vertex="1" connectable="0">
          <mxGeometry x="670" y="-1400" width="40" height="80" as="geometry" />
        </mxCell>
        <mxCell id="_JN7Ap7qeWiaTL78hcln-63" value="" style="rounded=0;whiteSpace=wrap;html=1;" parent="_JN7Ap7qeWiaTL78hcln-62" vertex="1">
          <mxGeometry width="40" height="80" as="geometry" />
        </mxCell>
        <mxCell id="_JN7Ap7qeWiaTL78hcln-64" value="" style="endArrow=none;html=1;rounded=0;exitX=0;exitY=0.5;exitDx=0;exitDy=0;entryX=1;entryY=0.5;entryDx=0;entryDy=0;" parent="_JN7Ap7qeWiaTL78hcln-62" source="_JN7Ap7qeWiaTL78hcln-63" target="_JN7Ap7qeWiaTL78hcln-63" edge="1">
          <mxGeometry width="50" height="50" relative="1" as="geometry">
            <mxPoint x="190" y="230" as="sourcePoint" />
            <mxPoint x="240" y="170" as="targetPoint" />
          </mxGeometry>
        </mxCell>
        <mxCell id="_JN7Ap7qeWiaTL78hcln-65" value="&lt;font style=&quot;font-size: 30px;&quot;&gt;5&lt;/font&gt;" style="text;html=1;align=center;verticalAlign=middle;whiteSpace=wrap;rounded=0;" parent="_JN7Ap7qeWiaTL78hcln-62" vertex="1">
          <mxGeometry width="40" height="40" as="geometry" />
        </mxCell>
        <mxCell id="_JN7Ap7qeWiaTL78hcln-3" value="" style="rounded=0;whiteSpace=wrap;html=1;fillColor=#3399FF;" parent="1" vertex="1">
          <mxGeometry x="70" y="-1400" width="40" height="80" as="geometry" />
        </mxCell>
        <mxCell id="_JN7Ap7qeWiaTL78hcln-4" value="" style="endArrow=none;html=1;rounded=0;exitX=0;exitY=0.5;exitDx=0;exitDy=0;entryX=1;entryY=0.5;entryDx=0;entryDy=0;" parent="1" source="_JN7Ap7qeWiaTL78hcln-3" target="_JN7Ap7qeWiaTL78hcln-3" edge="1">
          <mxGeometry width="50" height="50" relative="1" as="geometry">
            <mxPoint x="260" y="-1170" as="sourcePoint" />
            <mxPoint x="310" y="-1230" as="targetPoint" />
          </mxGeometry>
        </mxCell>
        <mxCell id="_JN7Ap7qeWiaTL78hcln-6" value="" style="rounded=0;whiteSpace=wrap;html=1;fillColor=#3399FF;" parent="1" vertex="1">
          <mxGeometry x="110" y="-1400" width="40" height="80" as="geometry" />
        </mxCell>
        <mxCell id="_JN7Ap7qeWiaTL78hcln-7" value="" style="endArrow=none;html=1;rounded=0;exitX=0;exitY=0.5;exitDx=0;exitDy=0;entryX=1;entryY=0.5;entryDx=0;entryDy=0;" parent="1" source="_JN7Ap7qeWiaTL78hcln-6" target="_JN7Ap7qeWiaTL78hcln-6" edge="1">
          <mxGeometry width="50" height="50" relative="1" as="geometry">
            <mxPoint x="300" y="-1170" as="sourcePoint" />
            <mxPoint x="350" y="-1230" as="targetPoint" />
          </mxGeometry>
        </mxCell>
        <mxCell id="_JN7Ap7qeWiaTL78hcln-9" value="" style="rounded=0;whiteSpace=wrap;html=1;fillColor=#3399FF;" parent="1" vertex="1">
          <mxGeometry x="150" y="-1400" width="40" height="80" as="geometry" />
        </mxCell>
        <mxCell id="_JN7Ap7qeWiaTL78hcln-10" value="" style="endArrow=none;html=1;rounded=0;exitX=0;exitY=0.5;exitDx=0;exitDy=0;entryX=1;entryY=0.5;entryDx=0;entryDy=0;" parent="1" source="_JN7Ap7qeWiaTL78hcln-9" target="_JN7Ap7qeWiaTL78hcln-9" edge="1">
          <mxGeometry width="50" height="50" relative="1" as="geometry">
            <mxPoint x="340" y="-1170" as="sourcePoint" />
            <mxPoint x="390" y="-1230" as="targetPoint" />
          </mxGeometry>
        </mxCell>
        <mxCell id="sv5eZ4WyfE4ip37S84jS-1" value="" style="rounded=0;whiteSpace=wrap;html=1;" parent="1" vertex="1">
          <mxGeometry x="110" y="-1400" width="40" height="40" as="geometry" />
        </mxCell>
      </root>
    </mxGraphModel>
  </diagram>
</mxfile>
